# Blender 4.4.1
# www.blender.org
mtllib A.mtl
o A
v 0.233500 0.120000 0.300000
v 0.142500 0.120000 0.099000
v -0.147500 0.120000 0.099000
v -0.233500 0.120000 0.300000
v -0.333500 0.120000 0.300000
v -0.040500 0.120000 -0.386000
v 0.028500 0.120000 -0.386000
v 0.333500 0.120000 0.300000
v 0.102500 0.120000 0.011000
v -0.007500 0.120000 -0.236000
v -0.109500 0.120000 0.011000
v 0.233500 -0.120000 0.300000
v 0.142500 -0.120000 0.099000
v -0.147500 -0.120000 0.099000
v -0.233500 -0.120000 0.300000
v -0.333500 -0.120000 0.300000
v -0.040500 -0.120000 -0.386000
v 0.028500 -0.120000 -0.386000
v 0.333500 -0.120000 0.300000
v 0.102500 -0.120000 0.011000
v -0.007500 -0.120000 -0.236000
v -0.109500 -0.120000 0.011000
v 0.233500 -0.120000 0.300000
v 0.229514 -0.119021 0.306180
v 0.225918 -0.116180 0.311756
v 0.223064 -0.111756 0.316180
v 0.221232 -0.106180 0.319021
v 0.220601 -0.100000 0.320000
v 0.220601 0.100000 0.320000
v 0.221232 0.106180 0.319021
v 0.223064 0.111756 0.316180
v 0.225918 0.116180 0.311756
v 0.229514 0.119021 0.306180
v 0.233500 0.120000 0.300000
v 0.142500 -0.120000 0.099000
v 0.138514 -0.119021 0.105180
v 0.134918 -0.116180 0.110756
v 0.132064 -0.111756 0.115180
v 0.130232 -0.106180 0.118021
v 0.129600 -0.100000 0.119000
v 0.129600 0.100000 0.119000
v 0.130232 0.106180 0.118021
v 0.132064 0.111756 0.115180
v 0.134918 0.116180 0.110756
v 0.138514 0.119021 0.105180
v 0.142500 0.120000 0.099000
v -0.147500 -0.120000 0.099000
v -0.143422 -0.119021 0.105180
v -0.139743 -0.116180 0.110756
v -0.136824 -0.111756 0.115180
v -0.134949 -0.106180 0.118021
v -0.134303 -0.100000 0.119000
v -0.134303 0.100000 0.119000
v -0.134949 0.106180 0.118021
v -0.136824 0.111756 0.115180
v -0.139743 0.116180 0.110756
v -0.143422 0.119021 0.105180
v -0.147500 0.120000 0.099000
v -0.233500 -0.120000 0.300000
v -0.229422 -0.119021 0.306180
v -0.225743 -0.116180 0.311756
v -0.222824 -0.111756 0.316180
v -0.220949 -0.106180 0.319021
v -0.220303 -0.100000 0.320000
v -0.220303 0.100000 0.320000
v -0.220949 0.106180 0.319021
v -0.222824 0.111756 0.316180
v -0.225743 0.116180 0.311756
v -0.229422 0.119021 0.306180
v -0.233500 0.120000 0.300000
v -0.333500 -0.120000 0.300000
v -0.342860 -0.119021 0.306180
v -0.351304 -0.116180 0.311756
v -0.358005 -0.111756 0.316180
v -0.362308 -0.106180 0.319021
v -0.363790 -0.100000 0.320000
v -0.363790 0.100000 0.320000
v -0.362308 0.106180 0.319021
v -0.358005 0.111756 0.316180
v -0.351304 0.116180 0.311756
v -0.342860 0.119021 0.306180
v -0.333500 0.120000 0.300000
v -0.040500 -0.120000 -0.386000
v -0.044581 -0.119021 -0.392180
v -0.048262 -0.116180 -0.397756
v -0.051184 -0.111756 -0.402180
v -0.053059 -0.106180 -0.405021
v -0.053706 -0.100000 -0.406000
v -0.053706 0.100000 -0.406000
v -0.053059 0.106180 -0.405021
v -0.051184 0.111756 -0.402180
v -0.048262 0.116180 -0.397756
v -0.044581 0.119021 -0.392180
v -0.040500 0.120000 -0.386000
v 0.028500 -0.120000 -0.386000
v 0.032516 -0.119021 -0.392180
v 0.036139 -0.116180 -0.397756
v 0.039014 -0.111756 -0.402180
v 0.040859 -0.106180 -0.405021
v 0.041496 -0.100000 -0.406000
v 0.041496 0.100000 -0.406000
v 0.040859 0.106180 -0.405021
v 0.039014 0.111756 -0.402180
v 0.036139 0.116180 -0.397756
v 0.032516 0.119021 -0.392180
v 0.028500 0.120000 -0.386000
v 0.333500 -0.120000 0.300000
v 0.343011 -0.119021 0.306180
v 0.351592 -0.116180 0.311756
v 0.358401 -0.111756 0.316180
v 0.362773 -0.106180 0.319021
v 0.364280 -0.100000 0.320000
v 0.364280 0.100000 0.320000
v 0.362773 0.106180 0.319021
v 0.358401 0.111756 0.316180
v 0.351592 0.116180 0.311756
v 0.343011 0.119021 0.306180
v 0.333500 0.120000 0.300000
v 0.102500 -0.120000 0.011000
v 0.092982 -0.119021 0.004820
v 0.084396 -0.116180 -0.000756
v 0.077582 -0.111756 -0.005180
v 0.073207 -0.106180 -0.008021
v 0.071699 -0.100000 -0.009000
v 0.071699 0.100000 -0.009000
v 0.073207 0.106180 -0.008021
v 0.077582 0.111756 -0.005180
v 0.084396 0.116180 -0.000756
v 0.092982 0.119021 0.004820
v 0.102500 0.120000 0.011000
v -0.007500 -0.120000 -0.236000
v -0.007286 -0.119021 -0.220327
v -0.007092 -0.116180 -0.206188
v -0.006939 -0.111756 -0.194968
v -0.006840 -0.106180 -0.187764
v -0.006806 -0.100000 -0.185281
v -0.006806 0.100000 -0.185281
v -0.006840 0.106180 -0.187764
v -0.006939 0.111756 -0.194968
v -0.007092 0.116180 -0.206188
v -0.007286 0.119021 -0.220327
v -0.007500 0.120000 -0.236000
v -0.109500 -0.120000 0.011000
v -0.100261 -0.119021 0.004820
v -0.091927 -0.116180 -0.000756
v -0.085313 -0.111756 -0.005180
v -0.081066 -0.106180 -0.008021
v -0.079603 -0.100000 -0.009000
v -0.079603 0.100000 -0.009000
v -0.081066 0.106180 -0.008021
v -0.085313 0.111756 -0.005180
v -0.091927 0.116180 -0.000756
v -0.100261 0.119021 0.004820
v -0.109500 0.120000 0.011000
vn -0.0000 1.0000 -0.0000
vn -0.0000 -1.0000 -0.0000
vn -0.1679 -0.9508 0.2603
vn -0.1183 -0.9759 0.1834
vn -0.0715 -0.9913 0.1109
vn -0.3036 -0.8284 0.4708
vn -0.2622 -0.8752 0.4066
vn -0.4237 -0.6237 0.6569
vn -0.3972 -0.6805 0.6158
vn -0.5100 -0.3384 0.7908
vn -0.5013 -0.3801 0.7773
vn -0.5398 -0.0902 0.8369
vn -0.5395 -0.0961 0.8365
vn -0.5398 0.0902 0.8369
vn -0.5395 0.0961 0.8365
vn -0.5100 0.3384 0.7908
vn -0.5013 0.3801 0.7773
vn -0.4237 0.6237 0.6569
vn -0.3972 0.6805 0.6158
vn -0.3036 0.8284 0.4708
vn -0.2622 0.8752 0.4066
vn -0.1679 0.9508 0.2603
vn -0.1183 0.9759 0.1834
vn -0.0715 0.9913 0.1109
vn 0.1190 -0.9764 0.1803
vn 0.0722 -0.9914 0.1094
vn 0.2647 -0.8769 0.4011
vn 0.4020 -0.6835 0.6093
vn 0.5088 -0.3827 0.7711
vn 0.5482 -0.0968 0.8308
vn 0.5482 0.0968 0.8308
vn 0.5088 0.3827 0.7711
vn 0.4020 0.6835 0.6093
vn 0.2647 0.8769 0.4011
vn 0.1190 0.9764 0.1803
vn 0.0722 0.9914 0.1094
vn 0.1700 -0.9512 0.2577
vn 0.3075 -0.8296 0.4660
vn 0.4296 -0.6256 0.6512
vn 0.5179 -0.3400 0.7850
vn 0.5485 -0.0907 0.8312
vn 0.5485 0.0907 0.8312
vn 0.5179 0.3400 0.7850
vn 0.4296 0.6256 0.6512
vn 0.3075 0.8296 0.4660
vn 0.1700 0.9512 0.2577
vn -0.1953 -0.9722 0.1290
vn -0.0726 -0.9962 0.0479
vn -0.3630 -0.9005 0.2396
vn -0.5568 -0.7449 0.3676
vn -0.7478 -0.4439 0.4937
vn -0.8274 -0.1302 0.5463
vn -0.8274 0.1302 0.5463
vn -0.7478 0.4439 0.4937
vn -0.5568 0.7449 0.3676
vn -0.3630 0.9005 0.2396
vn -0.1953 0.9722 0.1290
vn -0.0726 0.9962 0.0479
vn -0.1701 -0.9512 -0.2576
vn -0.0722 -0.9914 -0.1093
vn -0.3076 -0.8296 -0.4659
vn -0.4298 -0.6257 -0.6510
vn -0.5182 -0.3400 -0.7848
vn -0.5487 -0.0907 -0.8311
vn -0.5487 0.0907 -0.8311
vn -0.5182 0.3400 -0.7848
vn -0.4298 0.6257 -0.6510
vn -0.3076 0.8296 -0.4659
vn -0.1701 0.9512 -0.2576
vn -0.0722 0.9914 -0.1093
vn 0.1686 -0.9509 -0.2594
vn 0.0717 -0.9913 -0.1104
vn 0.3049 -0.8288 -0.4692
vn 0.4256 -0.6243 -0.6550
vn 0.5126 -0.3389 -0.7889
vn 0.5426 -0.0903 -0.8351
vn 0.5426 0.0903 -0.8351
vn 0.5126 0.3389 -0.7889
vn 0.4256 0.6243 -0.6550
vn 0.3049 0.8288 -0.4692
vn 0.1686 0.9509 -0.2594
vn 0.0717 0.9913 -0.1104
vn 0.1945 -0.9727 0.1264
vn 0.0721 -0.9963 0.0468
vn 0.3619 -0.9021 0.2351
vn 0.5566 -0.7479 0.3617
vn 0.7501 -0.4469 0.4874
vn 0.8312 -0.1315 0.5401
vn 0.8312 0.1315 0.5401
vn 0.7501 0.4469 0.4874
vn 0.5566 0.7479 0.3617
vn 0.3619 0.9021 0.2351
vn 0.1945 0.9727 0.1264
vn 0.0721 0.9963 0.0468
vn -0.1007 -0.9928 -0.0654
vn 0.0011 -0.9968 0.0801
vn 0.0009 -0.9981 0.0623
vn -0.0721 -0.9963 -0.0468
vn -0.2616 -0.9501 -0.1699
vn 0.0030 -0.9750 0.2220
vn -0.4580 -0.8377 -0.2974
vn 0.0057 -0.9105 0.4135
vn -0.6951 -0.5595 -0.4514
vn 0.0098 -0.6962 0.7178
vn -0.8288 -0.1529 -0.5382
vn 0.0134 -0.2146 0.9766
vn -0.8288 0.1529 -0.5382
vn 0.0134 0.2146 0.9766
vn -0.6951 0.5595 -0.4514
vn 0.0098 0.6962 0.7178
vn -0.4580 0.8377 -0.2974
vn 0.0057 0.9105 0.4135
vn -0.2616 0.9501 -0.1699
vn 0.0030 0.9750 0.2220
vn -0.1007 0.9928 -0.0654
vn 0.0011 0.9968 0.0801
vn -0.0721 0.9963 -0.0468
vn 0.0009 0.9981 0.0623
vn 0.1026 -0.9924 -0.0686
vn 0.0729 -0.9961 -0.0488
vn 0.2649 -0.9479 -0.1772
vn 0.4614 -0.8318 -0.3086
vn 0.6939 -0.5505 -0.4642
vn 0.8218 -0.1496 -0.5498
vn 0.8218 0.1496 -0.5498
vn 0.6939 0.5505 -0.4642
vn 0.4614 0.8318 -0.3086
vn 0.2649 0.9479 -0.1772
vn 0.1026 0.9924 -0.0686
vn 0.0729 0.9961 -0.0488
vt 0.400000 0.000000
vt 0.600000 0.000000
vt 0.500000 0.000000
vt 0.900000 0.000000
vt 0.700000 0.000000
vt 1.000000 0.000000
vt 0.800000 0.000000
vt 0.200000 0.000000
vt 0.100000 0.000000
vt 0.300000 0.000000
vt 0.000000 0.000000
vt 0.000000 0.090909
vt 0.125000 0.090909
vt 0.125000 0.000000
vt 0.000000 0.181818
vt 0.125000 0.181818
vt 0.000000 0.272727
vt 0.125000 0.272727
vt 0.000000 0.363636
vt 0.125000 0.363636
vt 0.000000 0.454545
vt 0.125000 0.454545
vt 0.000000 0.545455
vt 0.125000 0.545455
vt 0.000000 0.636364
vt 0.125000 0.636364
vt 0.000000 0.727273
vt 0.125000 0.727273
vt 0.000000 0.818182
vt 0.125000 0.818182
vt 0.000000 0.909091
vt 0.125000 0.909091
vt 0.000000 1.000000
vt 0.125000 1.000000
vt 0.250000 0.090909
vt 0.250000 0.000000
vt 0.250000 0.181818
vt 0.250000 0.272727
vt 0.250000 0.363636
vt 0.250000 0.454545
vt 0.250000 0.545455
vt 0.250000 0.636364
vt 0.250000 0.727273
vt 0.250000 0.818182
vt 0.250000 0.909091
vt 0.250000 1.000000
vt 0.375000 0.090909
vt 0.375000 0.000000
vt 0.375000 0.181818
vt 0.375000 0.272727
vt 0.375000 0.363636
vt 0.375000 0.454545
vt 0.375000 0.545455
vt 0.375000 0.636364
vt 0.375000 0.727273
vt 0.375000 0.818182
vt 0.375000 0.909091
vt 0.375000 1.000000
vt 0.500000 0.090909
vt 0.500000 0.181818
vt 0.500000 0.272727
vt 0.500000 0.363636
vt 0.500000 0.454545
vt 0.500000 0.545455
vt 0.500000 0.636364
vt 0.500000 0.727273
vt 0.500000 0.818182
vt 0.500000 0.909091
vt 0.500000 1.000000
vt 0.625000 0.090909
vt 0.625000 0.000000
vt 0.625000 0.181818
vt 0.625000 0.272727
vt 0.625000 0.363636
vt 0.625000 0.454545
vt 0.625000 0.545455
vt 0.625000 0.636364
vt 0.625000 0.727273
vt 0.625000 0.818182
vt 0.625000 0.909091
vt 0.625000 1.000000
vt 0.750000 0.090909
vt 0.750000 0.000000
vt 0.750000 0.181818
vt 0.750000 0.272727
vt 0.750000 0.363636
vt 0.750000 0.454545
vt 0.750000 0.545455
vt 0.750000 0.636364
vt 0.750000 0.727273
vt 0.750000 0.818182
vt 0.750000 0.909091
vt 0.750000 1.000000
vt 0.875000 0.090909
vt 0.875000 0.000000
vt 0.875000 0.181818
vt 0.875000 0.272727
vt 0.875000 0.363636
vt 0.875000 0.454545
vt 0.875000 0.545455
vt 0.875000 0.636364
vt 0.875000 0.727273
vt 0.875000 0.818182
vt 0.875000 0.909091
vt 0.875000 1.000000
vt 1.000000 0.090909
vt 1.000000 0.181818
vt 1.000000 0.272727
vt 1.000000 0.363636
vt 1.000000 0.454545
vt 1.000000 0.545455
vt 1.000000 0.636364
vt 1.000000 0.727273
vt 1.000000 0.818182
vt 1.000000 0.909091
vt 1.000000 1.000000
vt 0.333333 0.090909
vt 0.333333 0.000000
vt 0.333333 0.181818
vt 0.333333 0.272727
vt 0.333333 0.363636
vt 0.333333 0.454545
vt 0.333333 0.545455
vt 0.333333 0.636364
vt 0.333333 0.727273
vt 0.333333 0.818182
vt 0.333333 0.909091
vt 0.333333 1.000000
vt 0.666667 0.090909
vt 0.666667 0.000000
vt 0.666667 0.181818
vt 0.666667 0.272727
vt 0.666667 0.363636
vt 0.666667 0.454545
vt 0.666667 0.545455
vt 0.666667 0.636364
vt 0.666667 0.727273
vt 0.666667 0.818182
vt 0.666667 0.909091
vt 0.666667 1.000000
s 0
usemtl マテリアル.005
f 5/1/1 7/2/1 6/3/1
f 5/1/1 10/4/1 7/2/1
f 10/4/1 8/5/1 7/2/1
f 5/1/1 11/6/1 10/4/1
f 9/7/1 8/5/1 10/4/1
f 5/1/1 3/8/1 11/6/1
f 3/8/1 9/7/1 11/6/1
f 3/8/1 2/9/1 9/7/1
f 2/9/1 8/5/1 9/7/1
f 5/1/1 4/10/1 3/8/1
f 1/11/1 8/5/1 2/9/1
f 16/1/2 17/3/2 18/2/2
f 16/1/2 18/2/2 21/4/2
f 21/4/2 18/2/2 19/5/2
f 16/1/2 21/4/2 22/6/2
f 20/7/2 21/4/2 19/5/2
f 16/1/2 22/6/2 14/8/2
f 14/8/2 22/6/2 20/7/2
f 14/8/2 20/7/2 13/9/2
f 13/9/2 20/7/2 19/5/2
f 16/1/2 14/8/2 15/10/2
f 12/11/2 13/9/2 19/5/2
s 1
f 24/12/3 36/13/4 35/14/5 23/11/5
f 25/15/6 37/16/7 36/13/4 24/12/3
f 26/17/8 38/18/9 37/16/7 25/15/6
f 27/19/10 39/20/11 38/18/9 26/17/8
f 28/21/12 40/22/13 39/20/11 27/19/10
f 29/23/14 41/24/15 40/22/13 28/21/12
f 30/25/16 42/26/17 41/24/15 29/23/14
f 31/27/18 43/28/19 42/26/17 30/25/16
f 32/29/20 44/30/21 43/28/19 31/27/18
f 33/31/22 45/32/23 44/30/21 32/29/20
f 34/33/24 46/34/24 45/32/23 33/31/22
f 36/13/4 48/35/25 47/36/26 35/14/5
f 37/16/7 49/37/27 48/35/25 36/13/4
f 38/18/9 50/38/28 49/37/27 37/16/7
f 39/20/11 51/39/29 50/38/28 38/18/9
f 40/22/13 52/40/30 51/39/29 39/20/11
f 41/24/15 53/41/31 52/40/30 40/22/13
f 42/26/17 54/42/32 53/41/31 41/24/15
f 43/28/19 55/43/33 54/42/32 42/26/17
f 44/30/21 56/44/34 55/43/33 43/28/19
f 45/32/23 57/45/35 56/44/34 44/30/21
f 46/34/24 58/46/36 57/45/35 45/32/23
f 48/35/25 60/47/37 59/48/26 47/36/26
f 49/37/27 61/49/38 60/47/37 48/35/25
f 50/38/28 62/50/39 61/49/38 49/37/27
f 51/39/29 63/51/40 62/50/39 50/38/28
f 52/40/30 64/52/41 63/51/40 51/39/29
f 53/41/31 65/53/42 64/52/41 52/40/30
f 54/42/32 66/54/43 65/53/42 53/41/31
f 55/43/33 67/55/44 66/54/43 54/42/32
f 56/44/34 68/56/45 67/55/44 55/43/33
f 57/45/35 69/57/46 68/56/45 56/44/34
f 58/46/36 70/58/36 69/57/46 57/45/35
f 60/47/37 72/59/47 71/3/48 59/48/26
f 61/49/38 73/60/49 72/59/47 60/47/37
f 62/50/39 74/61/50 73/60/49 61/49/38
f 63/51/40 75/62/51 74/61/50 62/50/39
f 64/52/41 76/63/52 75/62/51 63/51/40
f 65/53/42 77/64/53 76/63/52 64/52/41
f 66/54/43 78/65/54 77/64/53 65/53/42
f 67/55/44 79/66/55 78/65/54 66/54/43
f 68/56/45 80/67/56 79/66/55 67/55/44
f 69/57/46 81/68/57 80/67/56 68/56/45
f 70/58/36 82/69/58 81/68/57 69/57/46
f 72/59/47 84/70/59 83/71/60 71/3/48
f 73/60/49 85/72/61 84/70/59 72/59/47
f 74/61/50 86/73/62 85/72/61 73/60/49
f 75/62/51 87/74/63 86/73/62 74/61/50
f 76/63/52 88/75/64 87/74/63 75/62/51
f 77/64/53 89/76/65 88/75/64 76/63/52
f 78/65/54 90/77/66 89/76/65 77/64/53
f 79/66/55 91/78/67 90/77/66 78/65/54
f 80/67/56 92/79/68 91/78/67 79/66/55
f 81/68/57 93/80/69 92/79/68 80/67/56
f 82/69/58 94/81/70 93/80/69 81/68/57
f 84/70/59 96/82/71 95/83/72 83/71/60
f 85/72/61 97/84/73 96/82/71 84/70/59
f 86/73/62 98/85/74 97/84/73 85/72/61
f 87/74/63 99/86/75 98/85/74 86/73/62
f 88/75/64 100/87/76 99/86/75 87/74/63
f 89/76/65 101/88/77 100/87/76 88/75/64
f 90/77/66 102/89/78 101/88/77 89/76/65
f 91/78/67 103/90/79 102/89/78 90/77/66
f 92/79/68 104/91/80 103/90/79 91/78/67
f 93/80/69 105/92/81 104/91/80 92/79/68
f 94/81/70 106/93/82 105/92/81 93/80/69
f 96/82/71 108/94/83 107/95/84 95/83/72
f 97/84/73 109/96/85 108/94/83 96/82/71
f 98/85/74 110/97/86 109/96/85 97/84/73
f 99/86/75 111/98/87 110/97/86 98/85/74
f 100/87/76 112/99/88 111/98/87 99/86/75
f 101/88/77 113/100/89 112/99/88 100/87/76
f 102/89/78 114/101/90 113/100/89 101/88/77
f 103/90/79 115/102/91 114/101/90 102/89/78
f 104/91/80 116/103/92 115/102/91 103/90/79
f 105/92/81 117/104/93 116/103/92 104/91/80
f 106/93/82 118/105/94 117/104/93 105/92/81
f 108/94/83 24/106/3 23/6/5 107/95/84
f 109/96/85 25/107/6 24/106/3 108/94/83
f 110/97/86 26/108/8 25/107/6 109/96/85
f 111/98/87 27/109/10 26/108/8 110/97/86
f 112/99/88 28/110/12 27/109/10 111/98/87
f 113/100/89 29/111/14 28/110/12 112/99/88
f 114/101/90 30/112/16 29/111/14 113/100/89
f 115/102/91 31/113/18 30/112/16 114/101/90
f 116/103/92 32/114/20 31/113/18 115/102/91
f 117/104/93 33/115/22 32/114/20 116/103/92
f 118/105/94 34/116/24 33/115/22 117/104/93
f 120/12/95 132/117/96 131/118/97 119/11/98
f 121/15/99 133/119/100 132/117/96 120/12/95
f 122/17/101 134/120/102 133/119/100 121/15/99
f 123/19/103 135/121/104 134/120/102 122/17/101
f 124/21/105 136/122/106 135/121/104 123/19/103
f 125/23/107 137/123/108 136/122/106 124/21/105
f 126/25/109 138/124/110 137/123/108 125/23/107
f 127/27/111 139/125/112 138/124/110 126/25/109
f 128/29/113 140/126/114 139/125/112 127/27/111
f 129/31/115 141/127/116 140/126/114 128/29/113
f 130/33/117 142/128/118 141/127/116 129/31/115
f 132/117/96 144/129/119 143/130/120 131/118/97
f 133/119/100 145/131/121 144/129/119 132/117/96
f 134/120/102 146/132/122 145/131/121 133/119/100
f 135/121/104 147/133/123 146/132/122 134/120/102
f 136/122/106 148/134/124 147/133/123 135/121/104
f 137/123/108 149/135/125 148/134/124 136/122/106
f 138/124/110 150/136/126 149/135/125 137/123/108
f 139/125/112 151/137/127 150/136/126 138/124/110
f 140/126/114 152/138/128 151/137/127 139/125/112
f 141/127/116 153/139/129 152/138/128 140/126/114
f 142/128/118 154/140/130 153/139/129 141/127/116
f 144/129/119 120/106/95 119/6/98 143/130/120
f 145/131/121 121/107/99 120/106/95 144/129/119
f 146/132/122 122/108/101 121/107/99 145/131/121
f 147/133/123 123/109/103 122/108/101 146/132/122
f 148/134/124 124/110/105 123/109/103 147/133/123
f 149/135/125 125/111/107 124/110/105 148/134/124
f 150/136/126 126/112/109 125/111/107 149/135/125
f 151/137/127 127/113/111 126/112/109 150/136/126
f 152/138/128 128/114/113 127/113/111 151/137/127
f 153/139/129 129/115/115 128/114/113 152/138/128
f 154/140/130 130/116/117 129/115/115 153/139/129
