# Blender 4.4.1
# www.blender.org
mtllib M.mtl
o M
v 0.220500 0.120000 0.300000
v 0.220500 0.120000 -0.231000
v 0.218500 0.120000 -0.231000
v 0.008500 0.120000 0.033000
v -0.007500 0.120000 0.033000
v -0.217500 0.120000 -0.231000
v -0.219500 0.120000 -0.231000
v -0.219500 0.120000 0.300000
v -0.317500 0.120000 0.300000
v -0.317500 0.120000 -0.382000
v -0.225500 0.120000 -0.382000
v 0.000500 0.120000 -0.102000
v 0.227500 0.120000 -0.382000
v 0.318500 0.120000 -0.382000
v 0.318500 0.120000 0.300000
v 0.220500 -0.120000 0.300000
v 0.220500 -0.120000 -0.231000
v 0.218500 -0.120000 -0.231000
v 0.008500 -0.120000 0.033000
v -0.007500 -0.120000 0.033000
v -0.217500 -0.120000 -0.231000
v -0.219500 -0.120000 -0.231000
v -0.219500 -0.120000 0.300000
v -0.317500 -0.120000 0.300000
v -0.317500 -0.120000 -0.382000
v -0.225500 -0.120000 -0.382000
v 0.000500 -0.120000 -0.102000
v 0.227500 -0.120000 -0.382000
v 0.318500 -0.120000 -0.382000
v 0.318500 -0.120000 0.300000
v 0.220500 -0.120000 0.300000
v 0.214320 -0.119021 0.306180
v 0.208744 -0.116180 0.311756
v 0.204320 -0.111756 0.316180
v 0.201479 -0.106180 0.319021
v 0.200500 -0.100000 0.320000
v 0.200500 0.100000 0.320000
v 0.201479 0.106180 0.319021
v 0.204320 0.111756 0.316180
v 0.208744 0.116180 0.311756
v 0.214320 0.119021 0.306180
v 0.220500 0.120000 0.300000
v 0.220500 -0.120000 -0.231000
v 0.214320 -0.119021 -0.224820
v 0.208744 -0.116180 -0.219244
v 0.204320 -0.111756 -0.214820
v 0.201479 -0.106180 -0.211979
v 0.200500 -0.100000 -0.211000
v 0.200500 0.100000 -0.211000
v 0.201479 0.106180 -0.211979
v 0.204320 0.111756 -0.214820
v 0.208744 0.116180 -0.219244
v 0.214320 0.119021 -0.224820
v 0.220500 0.120000 -0.231000
v 0.218500 -0.120000 -0.231000
v 0.221481 -0.119021 -0.224820
v 0.224170 -0.116180 -0.219244
v 0.226304 -0.111756 -0.214820
v 0.227675 -0.106180 -0.211979
v 0.228147 -0.100000 -0.211000
v 0.228147 0.100000 -0.211000
v 0.227675 0.106180 -0.211979
v 0.226304 0.111756 -0.214820
v 0.224170 0.116180 -0.219244
v 0.221481 0.119021 -0.224820
v 0.218500 0.120000 -0.231000
v 0.008500 -0.120000 0.033000
v 0.011481 -0.119021 0.039180
v 0.014170 -0.116180 0.044756
v 0.016304 -0.111756 0.049180
v 0.017675 -0.106180 0.052021
v 0.018147 -0.100000 0.053000
v 0.018147 0.100000 0.053000
v 0.017675 0.106180 0.052021
v 0.016304 0.111756 0.049180
v 0.014170 0.116180 0.044756
v 0.011481 0.119021 0.039180
v 0.008500 0.120000 0.033000
v -0.007500 -0.120000 0.033000
v -0.010481 -0.119021 0.039180
v -0.013170 -0.116180 0.044756
v -0.015304 -0.111756 0.049180
v -0.016675 -0.106180 0.052021
v -0.017147 -0.100000 0.053000
v -0.017147 0.100000 0.053000
v -0.016675 0.106180 0.052021
v -0.015304 0.111756 0.049180
v -0.013170 0.116180 0.044756
v -0.010481 0.119021 0.039180
v -0.007500 0.120000 0.033000
v -0.217500 -0.120000 -0.231000
v -0.220481 -0.119021 -0.224820
v -0.223170 -0.116180 -0.219244
v -0.225304 -0.111756 -0.214820
v -0.226675 -0.106180 -0.211979
v -0.227147 -0.100000 -0.211000
v -0.227147 0.100000 -0.211000
v -0.226675 0.106180 -0.211979
v -0.225304 0.111756 -0.214820
v -0.223170 0.116180 -0.219244
v -0.220481 0.119021 -0.224820
v -0.217500 0.120000 -0.231000
v -0.219500 -0.120000 -0.231000
v -0.213320 -0.119021 -0.224820
v -0.207744 -0.116180 -0.219244
v -0.203320 -0.111756 -0.214820
v -0.200479 -0.106180 -0.211979
v -0.199500 -0.100000 -0.211000
v -0.199500 0.100000 -0.211000
v -0.200479 0.106180 -0.211979
v -0.203320 0.111756 -0.214820
v -0.207744 0.116180 -0.219244
v -0.213320 0.119021 -0.224820
v -0.219500 0.120000 -0.231000
v -0.219500 -0.120000 0.300000
v -0.213320 -0.119021 0.306180
v -0.207744 -0.116180 0.311756
v -0.203320 -0.111756 0.316180
v -0.200479 -0.106180 0.319021
v -0.199500 -0.100000 0.320000
v -0.199500 0.100000 0.320000
v -0.200479 0.106180 0.319021
v -0.203320 0.111756 0.316180
v -0.207744 0.116180 0.311756
v -0.213320 0.119021 0.306180
v -0.219500 0.120000 0.300000
v -0.317500 -0.120000 0.300000
v -0.323680 -0.119021 0.306180
v -0.329256 -0.116180 0.311756
v -0.333680 -0.111756 0.316180
v -0.336521 -0.106180 0.319021
v -0.337500 -0.100000 0.320000
v -0.337500 0.100000 0.320000
v -0.336521 0.106180 0.319021
v -0.333680 0.111756 0.316180
v -0.329256 0.116180 0.311756
v -0.323680 0.119021 0.306180
v -0.317500 0.120000 0.300000
v -0.317500 -0.120000 -0.382000
v -0.323680 -0.119021 -0.388180
v -0.329256 -0.116180 -0.393756
v -0.333680 -0.111756 -0.398180
v -0.336521 -0.106180 -0.401021
v -0.337500 -0.100000 -0.402000
v -0.337500 0.100000 -0.402000
v -0.336521 0.106180 -0.401021
v -0.333680 0.111756 -0.398180
v -0.329256 0.116180 -0.393756
v -0.323680 0.119021 -0.388180
v -0.317500 0.120000 -0.382000
v -0.225500 -0.120000 -0.382000
v -0.222546 -0.119021 -0.388180
v -0.219881 -0.116180 -0.393756
v -0.217767 -0.111756 -0.398180
v -0.216409 -0.106180 -0.401021
v -0.215941 -0.100000 -0.402000
v -0.215941 0.100000 -0.402000
v -0.216409 0.106180 -0.401021
v -0.217767 0.111756 -0.398180
v -0.219881 0.116180 -0.393756
v -0.222546 0.119021 -0.388180
v -0.225500 0.120000 -0.382000
v 0.000500 -0.120000 -0.102000
v 0.000511 -0.119021 -0.111827
v 0.000520 -0.116180 -0.120692
v 0.000528 -0.111756 -0.127727
v 0.000533 -0.106180 -0.132244
v 0.000534 -0.100000 -0.133801
v 0.000534 0.100000 -0.133801
v 0.000533 0.106180 -0.132244
v 0.000528 0.111756 -0.127727
v 0.000520 0.116180 -0.120692
v 0.000511 0.119021 -0.111827
v 0.000500 0.120000 -0.102000
v 0.227500 -0.120000 -0.382000
v 0.224554 -0.119021 -0.388180
v 0.221897 -0.116180 -0.393756
v 0.219788 -0.111756 -0.398180
v 0.218434 -0.106180 -0.401021
v 0.217967 -0.100000 -0.402000
v 0.217967 0.100000 -0.402000
v 0.218434 0.106180 -0.401021
v 0.219788 0.111756 -0.398180
v 0.221897 0.116180 -0.393756
v 0.224554 0.119021 -0.388180
v 0.227500 0.120000 -0.382000
v 0.318500 -0.120000 -0.382000
v 0.324680 -0.119021 -0.388180
v 0.330256 -0.116180 -0.393756
v 0.334680 -0.111756 -0.398180
v 0.337521 -0.106180 -0.401021
v 0.338500 -0.100000 -0.402000
v 0.338500 0.100000 -0.402000
v 0.337521 0.106180 -0.401021
v 0.334680 0.111756 -0.398180
v 0.330256 0.116180 -0.393756
v 0.324680 0.119021 -0.388180
v 0.318500 0.120000 -0.382000
v 0.318500 -0.120000 0.300000
v 0.324680 -0.119021 0.306180
v 0.330256 -0.116180 0.311756
v 0.334680 -0.111756 0.316180
v 0.337521 -0.106180 0.319021
v 0.338500 -0.100000 0.320000
v 0.338500 0.100000 0.320000
v 0.337521 0.106180 0.319021
v 0.334680 0.111756 0.316180
v 0.330256 0.116180 0.311756
v 0.324680 0.119021 0.306180
v 0.318500 0.120000 0.300000
vn -0.0000 1.0000 -0.0000
vn -0.0000 -1.0000 -0.0000
vn -0.1980 -0.9600 0.1980
vn -0.5326 -0.1719 -0.8287
vn -0.7071 -0.0000 -0.7071
vn -0.0787 -0.9938 0.0787
vn -0.3610 -0.8599 0.3610
vn -0.6565 -0.1629 -0.7365
vn -0.5226 -0.6736 0.5226
vn -0.7159 -0.1349 -0.6850
vn -0.6543 -0.3793 0.6543
vn -0.7567 -0.0806 -0.6488
vn -0.7032 -0.1049 0.7032
vn -0.7409 -0.0110 -0.6716
vn -0.7032 0.1049 0.7032
vn -0.7409 0.0110 -0.6716
vn -0.6543 0.3793 0.6543
vn -0.7567 0.0806 -0.6488
vn -0.5226 0.6736 0.5226
vn -0.7159 0.1349 -0.6850
vn -0.3610 0.8599 0.3610
vn -0.6565 0.1629 -0.7365
vn -0.1980 0.9600 0.1980
vn -0.5326 0.1719 -0.8287
vn -0.0787 0.9938 0.0787
vn 0.7574 -0.1776 -0.6284
vn 0.9007 -0.0000 -0.4344
vn 0.8642 -0.1608 -0.4767
vn 0.9078 -0.1224 -0.4011
vn 0.9314 -0.0668 -0.3579
vn 0.9210 -0.0087 -0.3895
vn 0.9210 0.0087 -0.3895
vn 0.9314 0.0668 -0.3579
vn 0.9078 0.1224 -0.4011
vn 0.8642 0.1608 -0.4767
vn 0.7574 0.1776 -0.6284
vn 0.9007 -0.0000 -0.4345
vn 0.1386 -0.9478 0.2873
vn 0.0614 -0.9900 0.1272
vn 0.2511 -0.8161 0.5205
vn 0.3460 -0.6047 0.7173
vn 0.4111 -0.3236 0.8522
vn 0.4329 -0.0849 0.8974
vn 0.4329 0.0849 0.8974
vn 0.4111 0.3236 0.8522
vn 0.3460 0.6047 0.7173
vn 0.2511 0.8161 0.5205
vn 0.1386 0.9478 0.2873
vn 0.0614 0.9900 0.1272
vn -0.1386 -0.9478 0.2873
vn -0.0614 -0.9900 0.1272
vn -0.2511 -0.8161 0.5205
vn -0.3460 -0.6047 0.7173
vn -0.4111 -0.3236 0.8522
vn -0.4329 -0.0849 0.8974
vn -0.4329 0.0849 0.8974
vn -0.4111 0.3236 0.8522
vn -0.3460 0.6047 0.7173
vn -0.2511 0.8161 0.5205
vn -0.1386 0.9478 0.2873
vn -0.0614 0.9900 0.1272
vn -0.7574 -0.1776 -0.6284
vn -0.9007 -0.0000 -0.4344
vn -0.8642 -0.1608 -0.4767
vn -0.9078 -0.1224 -0.4011
vn -0.9314 -0.0668 -0.3579
vn -0.9210 -0.0087 -0.3895
vn -0.9210 0.0087 -0.3895
vn -0.9314 0.0668 -0.3579
vn -0.9078 0.1224 -0.4011
vn -0.8642 0.1608 -0.4767
vn -0.7574 0.1776 -0.6284
vn 0.5326 -0.1719 -0.8287
vn 0.7071 -0.0000 -0.7071
vn 0.6565 -0.1629 -0.7365
vn 0.7159 -0.1349 -0.6850
vn 0.7567 -0.0806 -0.6488
vn 0.7409 -0.0110 -0.6716
vn 0.7409 0.0110 -0.6716
vn 0.7567 0.0806 -0.6488
vn 0.7159 0.1349 -0.6850
vn 0.6565 0.1629 -0.7365
vn 0.5326 0.1719 -0.8287
vn 0.1980 -0.9600 0.1980
vn 0.0787 -0.9938 0.0787
vn 0.3610 -0.8599 0.3610
vn 0.5226 -0.6736 0.5226
vn 0.6543 -0.3793 0.6543
vn 0.7032 -0.1049 0.7032
vn 0.7032 0.1049 0.7032
vn 0.6543 0.3793 0.6543
vn 0.5226 0.6736 0.5226
vn 0.3610 0.8599 0.3610
vn 0.1980 0.9600 0.1980
vn 0.0787 0.9938 0.0787
vn -0.1980 -0.9600 -0.1980
vn -0.0787 -0.9938 -0.0787
vn -0.3610 -0.8599 -0.3610
vn -0.5226 -0.6736 -0.5226
vn -0.6543 -0.3793 -0.6543
vn -0.7032 -0.1049 -0.7032
vn -0.7032 0.1049 -0.7032
vn -0.6543 0.3793 -0.6543
vn -0.5226 0.6736 -0.5226
vn -0.3610 0.8599 -0.3610
vn -0.1980 0.9600 -0.1980
vn -0.0787 0.9938 -0.0787
vn 0.1376 -0.9477 -0.2879
vn 0.0610 -0.9899 -0.1276
vn 0.2494 -0.8158 -0.5218
vn 0.3436 -0.6043 -0.7189
vn 0.4081 -0.3232 -0.8538
vn 0.4297 -0.0848 -0.8990
vn 0.4297 0.0848 -0.8990
vn 0.4081 0.3232 -0.8538
vn 0.3436 0.6043 -0.7189
vn 0.2494 0.8158 -0.5218
vn 0.1376 0.9477 -0.2879
vn 0.0610 0.9899 -0.1276
vn 0.0002 -0.9894 -0.1451
vn 0.0001 -0.9951 -0.0991
vn 0.0004 -0.9322 -0.3619
vn 0.0007 -0.7933 -0.6089
vn 0.0009 -0.4976 -0.8674
vn 0.0011 -0.1312 -0.9914
vn 0.0011 0.1312 -0.9914
vn 0.0009 0.4976 -0.8674
vn 0.0007 0.7933 -0.6089
vn 0.0004 0.9322 -0.3619
vn 0.0002 0.9894 -0.1451
vn 0.0001 0.9951 -0.0991
vn -0.1373 -0.9477 -0.2881
vn -0.0609 -0.9899 -0.1278
vn -0.2489 -0.8157 -0.5222
vn -0.3429 -0.6042 -0.7193
vn -0.4072 -0.3231 -0.8543
vn -0.4287 -0.0848 -0.8995
vn -0.4287 0.0848 -0.8995
vn -0.4072 0.3231 -0.8543
vn -0.3429 0.6042 -0.7193
vn -0.2489 0.8157 -0.5222
vn -0.1373 0.9477 -0.2881
vn -0.0609 0.9899 -0.1278
vn 0.1980 -0.9600 -0.1980
vn 0.0787 -0.9938 -0.0787
vn 0.3610 -0.8599 -0.3610
vn 0.5226 -0.6736 -0.5226
vn 0.6543 -0.3793 -0.6543
vn 0.7032 -0.1049 -0.7032
vn 0.7032 0.1049 -0.7032
vn 0.6543 0.3793 -0.6543
vn 0.5226 0.6736 -0.5226
vn 0.3610 0.8599 -0.3610
vn 0.1980 0.9600 -0.1980
vn 0.0787 0.9938 -0.0787
vt 0.571429 0.000000
vt 0.714286 0.000000
vt 0.642857 0.000000
vt 0.428571 0.000000
vt 0.357143 0.000000
vt 0.785714 0.000000
vt 0.928571 0.000000
vt 0.857143 0.000000
vt 0.142857 0.000000
vt 0.071429 0.000000
vt 1.000000 0.000000
vt 0.500000 0.000000
vt 0.285714 0.000000
vt 0.214286 0.000000
vt 0.000000 0.000000
vt 0.000000 0.090909
vt 0.066667 0.090909
vt 0.066667 0.000000
vt 0.000000 0.181818
vt 0.066667 0.181818
vt 0.000000 0.272727
vt 0.066667 0.272727
vt 0.000000 0.363636
vt 0.066667 0.363636
vt 0.000000 0.454545
vt 0.066667 0.454545
vt 0.000000 0.545455
vt 0.066667 0.545455
vt 0.000000 0.636364
vt 0.066667 0.636364
vt 0.000000 0.727273
vt 0.066667 0.727273
vt 0.000000 0.818182
vt 0.066667 0.818182
vt 0.000000 0.909091
vt 0.066667 0.909091
vt 0.000000 1.000000
vt 0.066667 1.000000
vt 0.133333 0.090909
vt 0.133333 0.000000
vt 0.133333 0.181818
vt 0.133333 0.272727
vt 0.133333 0.363636
vt 0.133333 0.454545
vt 0.133333 0.545455
vt 0.133333 0.636364
vt 0.133333 0.727273
vt 0.133333 0.818182
vt 0.133333 0.909091
vt 0.133333 1.000000
vt 0.200000 0.090909
vt 0.200000 0.000000
vt 0.200000 0.181818
vt 0.200000 0.272727
vt 0.200000 0.363636
vt 0.200000 0.454545
vt 0.200000 0.545455
vt 0.200000 0.636364
vt 0.200000 0.727273
vt 0.200000 0.818182
vt 0.200000 0.909091
vt 0.200000 1.000000
vt 0.266667 0.090909
vt 0.266667 0.000000
vt 0.266667 0.181818
vt 0.266667 0.272727
vt 0.266667 0.363636
vt 0.266667 0.454545
vt 0.266667 0.545455
vt 0.266667 0.636364
vt 0.266667 0.727273
vt 0.266667 0.818182
vt 0.266667 0.909091
vt 0.266667 1.000000
vt 0.333333 0.090909
vt 0.333333 0.000000
vt 0.333333 0.181818
vt 0.333333 0.272727
vt 0.333333 0.363636
vt 0.333333 0.454545
vt 0.333333 0.545455
vt 0.333333 0.636364
vt 0.333333 0.727273
vt 0.333333 0.818182
vt 0.333333 0.909091
vt 0.333333 1.000000
vt 0.400000 0.090909
vt 0.400000 0.000000
vt 0.400000 0.181818
vt 0.400000 0.272727
vt 0.400000 0.363636
vt 0.400000 0.454545
vt 0.400000 0.545455
vt 0.400000 0.636364
vt 0.400000 0.727273
vt 0.400000 0.818182
vt 0.400000 0.909091
vt 0.400000 1.000000
vt 0.466667 0.090909
vt 0.466667 0.000000
vt 0.466667 0.181818
vt 0.466667 0.272727
vt 0.466667 0.363636
vt 0.466667 0.454545
vt 0.466667 0.545455
vt 0.466667 0.636364
vt 0.466667 0.727273
vt 0.466667 0.818182
vt 0.466667 0.909091
vt 0.466667 1.000000
vt 0.533333 0.090909
vt 0.533333 0.000000
vt 0.533333 0.181818
vt 0.533333 0.272727
vt 0.533333 0.363636
vt 0.533333 0.454545
vt 0.533333 0.545455
vt 0.533333 0.636364
vt 0.533333 0.727273
vt 0.533333 0.818182
vt 0.533333 0.909091
vt 0.533333 1.000000
vt 0.600000 0.090909
vt 0.600000 0.000000
vt 0.600000 0.181818
vt 0.600000 0.272727
vt 0.600000 0.363636
vt 0.600000 0.454545
vt 0.600000 0.545455
vt 0.600000 0.636364
vt 0.600000 0.727273
vt 0.600000 0.818182
vt 0.600000 0.909091
vt 0.600000 1.000000
vt 0.666667 0.090909
vt 0.666667 0.000000
vt 0.666667 0.181818
vt 0.666667 0.272727
vt 0.666667 0.363636
vt 0.666667 0.454545
vt 0.666667 0.545455
vt 0.666667 0.636364
vt 0.666667 0.727273
vt 0.666667 0.818182
vt 0.666667 0.909091
vt 0.666667 1.000000
vt 0.733333 0.090909
vt 0.733333 0.000000
vt 0.733333 0.181818
vt 0.733333 0.272727
vt 0.733333 0.363636
vt 0.733333 0.454545
vt 0.733333 0.545455
vt 0.733333 0.636364
vt 0.733333 0.727273
vt 0.733333 0.818182
vt 0.733333 0.909091
vt 0.733333 1.000000
vt 0.800000 0.090909
vt 0.800000 0.000000
vt 0.800000 0.181818
vt 0.800000 0.272727
vt 0.800000 0.363636
vt 0.800000 0.454545
vt 0.800000 0.545455
vt 0.800000 0.636364
vt 0.800000 0.727273
vt 0.800000 0.818182
vt 0.800000 0.909091
vt 0.800000 1.000000
vt 0.866667 0.090909
vt 0.866667 0.000000
vt 0.866667 0.181818
vt 0.866667 0.272727
vt 0.866667 0.363636
vt 0.866667 0.454545
vt 0.866667 0.545455
vt 0.866667 0.636364
vt 0.866667 0.727273
vt 0.866667 0.818182
vt 0.866667 0.909091
vt 0.866667 1.000000
vt 0.933333 0.090909
vt 0.933333 0.000000
vt 0.933333 0.181818
vt 0.933333 0.272727
vt 0.933333 0.363636
vt 0.933333 0.454545
vt 0.933333 0.545455
vt 0.933333 0.636364
vt 0.933333 0.727273
vt 0.933333 0.818182
vt 0.933333 0.909091
vt 0.933333 1.000000
vt 1.000000 0.090909
vt 1.000000 0.181818
vt 1.000000 0.272727
vt 1.000000 0.363636
vt 1.000000 0.454545
vt 1.000000 0.545455
vt 1.000000 0.636364
vt 1.000000 0.727273
vt 1.000000 0.818182
vt 1.000000 0.909091
vt 1.000000 1.000000
s 0
usemtl マテリアル.006
f 9/1/1 11/2/1 10/3/1
f 9/1/1 7/4/1 11/2/1
f 7/4/1 6/5/1 11/2/1
f 6/5/1 12/6/1 11/2/1
f 12/6/1 14/7/1 13/8/1
f 12/6/1 3/9/1 14/7/1
f 3/9/1 2/10/1 14/7/1
f 2/10/1 15/11/1 14/7/1
f 9/1/1 8/12/1 7/4/1
f 5/13/1 12/6/1 6/5/1
f 12/6/1 4/14/1 3/9/1
f 1/15/1 15/11/1 2/10/1
f 5/13/1 4/14/1 12/6/1
f 24/1/2 25/3/2 26/2/2
f 24/1/2 26/2/2 22/4/2
f 22/4/2 26/2/2 21/5/2
f 21/5/2 26/2/2 27/6/2
f 27/6/2 28/8/2 29/7/2
f 27/6/2 29/7/2 18/9/2
f 18/9/2 29/7/2 17/10/2
f 17/10/2 29/7/2 30/11/2
f 24/1/2 22/4/2 23/12/2
f 20/13/2 21/5/2 27/6/2
f 27/6/2 18/9/2 19/14/2
f 16/15/2 17/10/2 30/11/2
f 20/13/2 27/6/2 19/14/2
s 1
f 32/16/3 44/17/4 43/18/5 31/15/6
f 33/19/7 45/20/8 44/17/4 32/16/3
f 34/21/9 46/22/10 45/20/8 33/19/7
f 35/23/11 47/24/12 46/22/10 34/21/9
f 36/25/13 48/26/14 47/24/12 35/23/11
f 37/27/15 49/28/16 48/26/14 36/25/13
f 38/29/17 50/30/18 49/28/16 37/27/15
f 39/31/19 51/32/20 50/30/18 38/29/17
f 40/33/21 52/34/22 51/32/20 39/31/19
f 41/35/23 53/36/24 52/34/22 40/33/21
f 42/37/25 54/38/5 53/36/24 41/35/23
f 44/17/4 56/39/26 55/40/27 43/18/5
f 45/20/8 57/41/28 56/39/26 44/17/4
f 46/22/10 58/42/29 57/41/28 45/20/8
f 47/24/12 59/43/30 58/42/29 46/22/10
f 48/26/14 60/44/31 59/43/30 47/24/12
f 49/28/16 61/45/32 60/44/31 48/26/14
f 50/30/18 62/46/33 61/45/32 49/28/16
f 51/32/20 63/47/34 62/46/33 50/30/18
f 52/34/22 64/48/35 63/47/34 51/32/20
f 53/36/24 65/49/36 64/48/35 52/34/22
f 54/38/5 66/50/37 65/49/36 53/36/24
f 56/39/26 68/51/38 67/52/39 55/40/27
f 57/41/28 69/53/40 68/51/38 56/39/26
f 58/42/29 70/54/41 69/53/40 57/41/28
f 59/43/30 71/55/42 70/54/41 58/42/29
f 60/44/31 72/56/43 71/55/42 59/43/30
f 61/45/32 73/57/44 72/56/43 60/44/31
f 62/46/33 74/58/45 73/57/44 61/45/32
f 63/47/34 75/59/46 74/58/45 62/46/33
f 64/48/35 76/60/47 75/59/46 63/47/34
f 65/49/36 77/61/48 76/60/47 64/48/35
f 66/50/37 78/62/49 77/61/48 65/49/36
f 68/51/38 80/63/50 79/64/51 67/52/39
f 69/53/40 81/65/52 80/63/50 68/51/38
f 70/54/41 82/66/53 81/65/52 69/53/40
f 71/55/42 83/67/54 82/66/53 70/54/41
f 72/56/43 84/68/55 83/67/54 71/55/42
f 73/57/44 85/69/56 84/68/55 72/56/43
f 74/58/45 86/70/57 85/69/56 73/57/44
f 75/59/46 87/71/58 86/70/57 74/58/45
f 76/60/47 88/72/59 87/71/58 75/59/46
f 77/61/48 89/73/60 88/72/59 76/60/47
f 78/62/49 90/74/61 89/73/60 77/61/48
f 80/63/50 92/75/62 91/76/63 79/64/51
f 81/65/52 93/77/64 92/75/62 80/63/50
f 82/66/53 94/78/65 93/77/64 81/65/52
f 83/67/54 95/79/66 94/78/65 82/66/53
f 84/68/55 96/80/67 95/79/66 83/67/54
f 85/69/56 97/81/68 96/80/67 84/68/55
f 86/70/57 98/82/69 97/81/68 85/69/56
f 87/71/58 99/83/70 98/82/69 86/70/57
f 88/72/59 100/84/71 99/83/70 87/71/58
f 89/73/60 101/85/72 100/84/71 88/72/59
f 90/74/61 102/86/63 101/85/72 89/73/60
f 92/75/62 104/87/73 103/88/74 91/76/63
f 93/77/64 105/89/75 104/87/73 92/75/62
f 94/78/65 106/90/76 105/89/75 93/77/64
f 95/79/66 107/91/77 106/90/76 94/78/65
f 96/80/67 108/92/78 107/91/77 95/79/66
f 97/81/68 109/93/79 108/92/78 96/80/67
f 98/82/69 110/94/80 109/93/79 97/81/68
f 99/83/70 111/95/81 110/94/80 98/82/69
f 100/84/71 112/96/82 111/95/81 99/83/70
f 101/85/72 113/97/83 112/96/82 100/84/71
f 102/86/63 114/98/74 113/97/83 101/85/72
f 104/87/73 116/99/84 115/100/85 103/88/74
f 105/89/75 117/101/86 116/99/84 104/87/73
f 106/90/76 118/102/87 117/101/86 105/89/75
f 107/91/77 119/103/88 118/102/87 106/90/76
f 108/92/78 120/104/89 119/103/88 107/91/77
f 109/93/79 121/105/90 120/104/89 108/92/78
f 110/94/80 122/106/91 121/105/90 109/93/79
f 111/95/81 123/107/92 122/106/91 110/94/80
f 112/96/82 124/108/93 123/107/92 111/95/81
f 113/97/83 125/109/94 124/108/93 112/96/82
f 114/98/74 126/110/95 125/109/94 113/97/83
f 116/99/84 128/111/3 127/112/6 115/100/85
f 117/101/86 129/113/7 128/111/3 116/99/84
f 118/102/87 130/114/9 129/113/7 117/101/86
f 119/103/88 131/115/11 130/114/9 118/102/87
f 120/104/89 132/116/13 131/115/11 119/103/88
f 121/105/90 133/117/15 132/116/13 120/104/89
f 122/106/91 134/118/17 133/117/15 121/105/90
f 123/107/92 135/119/19 134/118/17 122/106/91
f 124/108/93 136/120/21 135/119/19 123/107/92
f 125/109/94 137/121/23 136/120/21 124/108/93
f 126/110/95 138/122/25 137/121/23 125/109/94
f 128/111/3 140/123/96 139/124/97 127/112/6
f 129/113/7 141/125/98 140/123/96 128/111/3
f 130/114/9 142/126/99 141/125/98 129/113/7
f 131/115/11 143/127/100 142/126/99 130/114/9
f 132/116/13 144/128/101 143/127/100 131/115/11
f 133/117/15 145/129/102 144/128/101 132/116/13
f 134/118/17 146/130/103 145/129/102 133/117/15
f 135/119/19 147/131/104 146/130/103 134/118/17
f 136/120/21 148/132/105 147/131/104 135/119/19
f 137/121/23 149/133/106 148/132/105 136/120/21
f 138/122/25 150/134/107 149/133/106 137/121/23
f 140/123/96 152/135/108 151/136/109 139/124/97
f 141/125/98 153/137/110 152/135/108 140/123/96
f 142/126/99 154/138/111 153/137/110 141/125/98
f 143/127/100 155/139/112 154/138/111 142/126/99
f 144/128/101 156/140/113 155/139/112 143/127/100
f 145/129/102 157/141/114 156/140/113 144/128/101
f 146/130/103 158/142/115 157/141/114 145/129/102
f 147/131/104 159/143/116 158/142/115 146/130/103
f 148/132/105 160/144/117 159/143/116 147/131/104
f 149/133/106 161/145/118 160/144/117 148/132/105
f 150/134/107 162/146/119 161/145/118 149/133/106
f 152/135/108 164/147/120 163/148/121 151/136/109
f 153/137/110 165/149/122 164/147/120 152/135/108
f 154/138/111 166/150/123 165/149/122 153/137/110
f 155/139/112 167/151/124 166/150/123 154/138/111
f 156/140/113 168/152/125 167/151/124 155/139/112
f 157/141/114 169/153/126 168/152/125 156/140/113
f 158/142/115 170/154/127 169/153/126 157/141/114
f 159/143/116 171/155/128 170/154/127 158/142/115
f 160/144/117 172/156/129 171/155/128 159/143/116
f 161/145/118 173/157/130 172/156/129 160/144/117
f 162/146/119 174/158/131 173/157/130 161/145/118
f 164/147/120 176/159/132 175/160/133 163/148/121
f 165/149/122 177/161/134 176/159/132 164/147/120
f 166/150/123 178/162/135 177/161/134 165/149/122
f 167/151/124 179/163/136 178/162/135 166/150/123
f 168/152/125 180/164/137 179/163/136 167/151/124
f 169/153/126 181/165/138 180/164/137 168/152/125
f 170/154/127 182/166/139 181/165/138 169/153/126
f 171/155/128 183/167/140 182/166/139 170/154/127
f 172/156/129 184/168/141 183/167/140 171/155/128
f 173/157/130 185/169/142 184/168/141 172/156/129
f 174/158/131 186/170/143 185/169/142 173/157/130
f 176/159/132 188/171/144 187/172/145 175/160/133
f 177/161/134 189/173/146 188/171/144 176/159/132
f 178/162/135 190/174/147 189/173/146 177/161/134
f 179/163/136 191/175/148 190/174/147 178/162/135
f 180/164/137 192/176/149 191/175/148 179/163/136
f 181/165/138 193/177/150 192/176/149 180/164/137
f 182/166/139 194/178/151 193/177/150 181/165/138
f 183/167/140 195/179/152 194/178/151 182/166/139
f 184/168/141 196/180/153 195/179/152 183/167/140
f 185/169/142 197/181/154 196/180/153 184/168/141
f 186/170/143 198/182/155 197/181/154 185/169/142
f 188/171/144 200/183/84 199/184/85 187/172/145
f 189/173/146 201/185/86 200/183/84 188/171/144
f 190/174/147 202/186/87 201/185/86 189/173/146
f 191/175/148 203/187/88 202/186/87 190/174/147
f 192/176/149 204/188/89 203/187/88 191/175/148
f 193/177/150 205/189/90 204/188/89 192/176/149
f 194/178/151 206/190/91 205/189/90 193/177/150
f 195/179/152 207/191/92 206/190/91 194/178/151
f 196/180/153 208/192/93 207/191/92 195/179/152
f 197/181/154 209/193/94 208/192/93 196/180/153
f 198/182/155 210/194/95 209/193/94 197/181/154
f 200/183/84 32/195/3 31/11/6 199/184/85
f 201/185/86 33/196/7 32/195/3 200/183/84
f 202/186/87 34/197/9 33/196/7 201/185/86
f 203/187/88 35/198/11 34/197/9 202/186/87
f 204/188/89 36/199/13 35/198/11 203/187/88
f 205/189/90 37/200/15 36/199/13 204/188/89
f 206/190/91 38/201/17 37/200/15 205/189/90
f 207/191/92 39/202/19 38/201/17 206/190/91
f 208/192/93 40/203/21 39/202/19 207/191/92
f 209/193/94 41/204/23 40/203/21 208/192/93
f 210/194/95 42/205/25 41/204/23 209/193/94
