# Blender 4.4.1
# www.blender.org
mtllib V.mtl
o V
v -0.007000 0.120000 0.306000
v -0.302000 0.120000 -0.382000
v -0.204000 0.120000 -0.382000
v 0.001000 0.120000 0.097000
v 0.205000 0.120000 -0.382000
v 0.302000 0.120000 -0.382000
v 0.013000 0.120000 0.306000
v -0.007000 -0.120000 0.306000
v -0.302000 -0.120000 -0.382000
v -0.204000 -0.120000 -0.382000
v 0.001000 -0.120000 0.097000
v 0.205000 -0.120000 -0.382000
v 0.302000 -0.120000 -0.382000
v 0.013000 -0.120000 0.306000
v -0.007000 -0.120000 0.306000
v -0.011075 -0.119021 0.312180
v -0.014750 -0.116180 0.317756
v -0.017667 -0.111756 0.322180
v -0.019540 -0.106180 0.325021
v -0.020185 -0.100000 0.326000
v -0.020185 0.100000 0.326000
v -0.019540 0.106180 0.325021
v -0.017667 0.111756 0.322180
v -0.014750 0.116180 0.317756
v -0.011075 0.119021 0.312180
v -0.007000 0.120000 0.306000
v -0.302000 -0.120000 -0.382000
v -0.311375 -0.119021 -0.388180
v -0.319831 -0.116180 -0.393756
v -0.326543 -0.111756 -0.398180
v -0.330852 -0.106180 -0.401021
v -0.332337 -0.100000 -0.402000
v -0.332337 0.100000 -0.402000
v -0.330852 0.106180 -0.401021
v -0.326543 0.111756 -0.398180
v -0.319831 0.116180 -0.393756
v -0.311375 0.119021 -0.388180
v -0.302000 0.120000 -0.382000
v -0.204000 -0.120000 -0.382000
v -0.199922 -0.119021 -0.388180
v -0.196244 -0.116180 -0.393756
v -0.193325 -0.111756 -0.398180
v -0.191451 -0.106180 -0.401021
v -0.190805 -0.100000 -0.402000
v -0.190805 0.100000 -0.402000
v -0.191451 0.106180 -0.401021
v -0.193325 0.111756 -0.398180
v -0.196244 0.116180 -0.393756
v -0.199922 0.119021 -0.388180
v -0.204000 0.120000 -0.382000
v 0.001000 -0.120000 0.097000
v 0.000986 -0.119021 0.081260
v 0.000974 -0.116180 0.067060
v 0.000964 -0.111756 0.055791
v 0.000957 -0.106180 0.048556
v 0.000955 -0.100000 0.046063
v 0.000955 0.100000 0.046063
v 0.000957 0.106180 0.048556
v 0.000964 0.111756 0.055791
v 0.000974 0.116180 0.067060
v 0.000986 0.119021 0.081260
v 0.001000 0.120000 0.097000
v 0.205000 -0.120000 -0.382000
v 0.200915 -0.119021 -0.388180
v 0.197229 -0.116180 -0.393756
v 0.194304 -0.111756 -0.398180
v 0.192427 -0.106180 -0.401021
v 0.191779 -0.100000 -0.402000
v 0.191779 0.100000 -0.402000
v 0.192427 0.106180 -0.401021
v 0.194304 0.111756 -0.398180
v 0.197229 0.116180 -0.393756
v 0.200915 0.119021 -0.388180
v 0.205000 0.120000 -0.382000
v 0.302000 -0.120000 -0.382000
v 0.311300 -0.119021 -0.388180
v 0.319689 -0.116180 -0.393756
v 0.326347 -0.111756 -0.398180
v 0.330621 -0.106180 -0.401021
v 0.332094 -0.100000 -0.402000
v 0.332094 0.100000 -0.402000
v 0.330621 0.106180 -0.401021
v 0.326347 0.111756 -0.398180
v 0.319689 0.116180 -0.393756
v 0.311300 0.119021 -0.388180
v 0.302000 0.120000 -0.382000
v 0.013000 -0.120000 0.306000
v 0.017107 -0.119021 0.312180
v 0.020813 -0.116180 0.317756
v 0.023753 -0.111756 0.322180
v 0.025641 -0.106180 0.325021
v 0.026292 -0.100000 0.326000
v 0.026292 0.100000 0.326000
v 0.025641 0.106180 0.325021
v 0.023753 0.111756 0.322180
v 0.020813 0.116180 0.317756
v 0.017107 0.119021 0.312180
v 0.013000 0.120000 0.306000
vn -0.0000 1.0000 -0.0000
vn -0.0000 -1.0000 -0.0000
vn -0.1699 -0.9511 0.2578
vn -0.1952 -0.9723 -0.1287
vn -0.0725 -0.9962 -0.0478
vn -0.0722 -0.9914 0.1094
vn -0.3074 -0.8296 0.4662
vn -0.3629 -0.9006 -0.2392
vn -0.4294 -0.6255 0.6514
vn -0.5568 -0.7451 -0.3671
vn -0.5176 -0.3399 0.7852
vn -0.7480 -0.4442 -0.4931
vn -0.5481 -0.0907 0.8314
vn -0.8278 -0.1303 -0.5457
vn -0.5481 0.0907 0.8314
vn -0.8278 0.1303 -0.5457
vn -0.5176 0.3399 0.7852
vn -0.7480 0.4442 -0.4931
vn -0.4294 0.6255 0.6514
vn -0.5568 0.7451 -0.3671
vn -0.3074 0.8296 0.4662
vn -0.3629 0.9006 -0.2392
vn -0.1699 0.9511 0.2578
vn -0.1952 0.9723 -0.1287
vn -0.0722 0.9914 0.1094
vn -0.0725 0.9962 -0.0478
vn 0.1700 -0.9512 -0.2577
vn 0.0722 -0.9914 -0.1094
vn 0.3075 -0.8296 -0.4661
vn 0.4296 -0.6256 -0.6512
vn 0.5179 -0.3400 -0.7850
vn 0.5484 -0.0907 -0.8313
vn 0.5484 0.0907 -0.8313
vn 0.5179 0.3400 -0.7850
vn 0.4296 0.6256 -0.6512
vn 0.3075 0.8296 -0.4661
vn 0.1700 0.9512 -0.2577
vn 0.0722 0.9914 -0.1094
vn -0.0001 -0.9968 -0.0797
vn -0.0001 -0.9981 -0.0621
vn -0.0002 -0.9753 -0.2210
vn -0.0004 -0.9112 -0.4119
vn -0.0006 -0.6978 -0.7162
vn -0.0009 -0.2155 -0.9765
vn -0.0009 0.2155 -0.9765
vn -0.0006 0.6978 -0.7162
vn -0.0004 0.9112 -0.4119
vn -0.0002 0.9753 -0.2210
vn -0.0001 0.9968 -0.0797
vn -0.0001 0.9981 -0.0621
vn -0.1702 -0.9512 -0.2575
vn -0.0722 -0.9914 -0.1093
vn -0.3078 -0.8297 -0.4657
vn -0.4301 -0.6258 -0.6507
vn -0.5186 -0.3401 -0.7845
vn -0.5492 -0.0907 -0.8308
vn -0.5492 0.0907 -0.8308
vn -0.5186 0.3401 -0.7845
vn -0.4301 0.6258 -0.6507
vn -0.3078 0.8297 -0.4657
vn -0.1702 0.9512 -0.2575
vn -0.0722 0.9914 -0.1093
vn 0.1956 -0.9720 -0.1300
vn 0.0727 -0.9962 -0.0483
vn 0.3634 -0.8998 -0.2415
vn 0.5569 -0.7436 -0.3701
vn 0.7468 -0.4427 -0.4963
vn 0.8258 -0.1297 -0.5488
vn 0.8258 0.1297 -0.5488
vn 0.7468 0.4427 -0.4963
vn 0.5569 0.7436 -0.3701
vn 0.3634 0.8998 -0.2415
vn 0.1956 0.9720 -0.1300
vn 0.0727 0.9962 -0.0483
vn 0.1707 -0.9513 0.2568
vn 0.0724 -0.9914 0.1089
vn 0.3087 -0.8300 0.4645
vn 0.4315 -0.6262 0.6493
vn 0.5204 -0.3404 0.7831
vn 0.5512 -0.0909 0.8294
vn 0.5512 0.0909 0.8294
vn 0.5204 0.3404 0.7831
vn 0.4315 0.6262 0.6493
vn 0.3087 0.8300 0.4645
vn 0.1707 0.9513 0.2568
vn 0.0724 0.9914 0.1089
vt 0.000000 0.000000
vt 0.333333 0.000000
vt 0.166667 0.000000
vt 0.500000 0.000000
vt 0.833333 0.000000
vt 0.666667 0.000000
vt 1.000000 0.000000
vt 0.000000 0.090909
vt 0.142857 0.090909
vt 0.142857 0.000000
vt 0.000000 0.181818
vt 0.142857 0.181818
vt 0.000000 0.272727
vt 0.142857 0.272727
vt 0.000000 0.363636
vt 0.142857 0.363636
vt 0.000000 0.454545
vt 0.142857 0.454545
vt 0.000000 0.545455
vt 0.142857 0.545455
vt 0.000000 0.636364
vt 0.142857 0.636364
vt 0.000000 0.727273
vt 0.142857 0.727273
vt 0.000000 0.818182
vt 0.142857 0.818182
vt 0.000000 0.909091
vt 0.142857 0.909091
vt 0.000000 1.000000
vt 0.142857 1.000000
vt 0.285714 0.090909
vt 0.285714 0.000000
vt 0.285714 0.181818
vt 0.285714 0.272727
vt 0.285714 0.363636
vt 0.285714 0.454545
vt 0.285714 0.545455
vt 0.285714 0.636364
vt 0.285714 0.727273
vt 0.285714 0.818182
vt 0.285714 0.909091
vt 0.285714 1.000000
vt 0.428571 0.090909
vt 0.428571 0.000000
vt 0.428571 0.181818
vt 0.428571 0.272727
vt 0.428571 0.363636
vt 0.428571 0.454545
vt 0.428571 0.545455
vt 0.428571 0.636364
vt 0.428571 0.727273
vt 0.428571 0.818182
vt 0.428571 0.909091
vt 0.428571 1.000000
vt 0.571429 0.090909
vt 0.571429 0.000000
vt 0.571429 0.181818
vt 0.571429 0.272727
vt 0.571429 0.363636
vt 0.571429 0.454545
vt 0.571429 0.545455
vt 0.571429 0.636364
vt 0.571429 0.727273
vt 0.571429 0.818182
vt 0.571429 0.909091
vt 0.571429 1.000000
vt 0.714286 0.090909
vt 0.714286 0.000000
vt 0.714286 0.181818
vt 0.714286 0.272727
vt 0.714286 0.363636
vt 0.714286 0.454545
vt 0.714286 0.545455
vt 0.714286 0.636364
vt 0.714286 0.727273
vt 0.714286 0.818182
vt 0.714286 0.909091
vt 0.714286 1.000000
vt 0.857143 0.090909
vt 0.857143 0.000000
vt 0.857143 0.181818
vt 0.857143 0.272727
vt 0.857143 0.363636
vt 0.857143 0.454545
vt 0.857143 0.545455
vt 0.857143 0.636364
vt 0.857143 0.727273
vt 0.857143 0.818182
vt 0.857143 0.909091
vt 0.857143 1.000000
vt 1.000000 0.090909
vt 1.000000 0.181818
vt 1.000000 0.272727
vt 1.000000 0.363636
vt 1.000000 0.454545
vt 1.000000 0.545455
vt 1.000000 0.636364
vt 1.000000 0.727273
vt 1.000000 0.818182
vt 1.000000 0.909091
vt 1.000000 1.000000
s 0
usemtl マテリアル.009
f 1/1/1 3/2/1 2/3/1
f 1/1/1 4/4/1 3/2/1
f 4/4/1 6/5/1 5/6/1
f 4/4/1 7/7/1 6/5/1
f 1/1/1 7/7/1 4/4/1
f 8/1/2 9/3/2 10/2/2
f 8/1/2 10/2/2 11/4/2
f 11/4/2 12/6/2 13/5/2
f 11/4/2 13/5/2 14/7/2
f 8/1/2 11/4/2 14/7/2
s 1
f 16/8/3 28/9/4 27/10/5 15/1/6
f 17/11/7 29/12/8 28/9/4 16/8/3
f 18/13/9 30/14/10 29/12/8 17/11/7
f 19/15/11 31/16/12 30/14/10 18/13/9
f 20/17/13 32/18/14 31/16/12 19/15/11
f 21/19/15 33/20/16 32/18/14 20/17/13
f 22/21/17 34/22/18 33/20/16 21/19/15
f 23/23/19 35/24/20 34/22/18 22/21/17
f 24/25/21 36/26/22 35/24/20 23/23/19
f 25/27/23 37/28/24 36/26/22 24/25/21
f 26/29/25 38/30/26 37/28/24 25/27/23
f 28/9/4 40/31/27 39/32/28 27/10/5
f 29/12/8 41/33/29 40/31/27 28/9/4
f 30/14/10 42/34/30 41/33/29 29/12/8
f 31/16/12 43/35/31 42/34/30 30/14/10
f 32/18/14 44/36/32 43/35/31 31/16/12
f 33/20/16 45/37/33 44/36/32 32/18/14
f 34/22/18 46/38/34 45/37/33 33/20/16
f 35/24/20 47/39/35 46/38/34 34/22/18
f 36/26/22 48/40/36 47/39/35 35/24/20
f 37/28/24 49/41/37 48/40/36 36/26/22
f 38/30/26 50/42/38 49/41/37 37/28/24
f 40/31/27 52/43/39 51/44/40 39/32/28
f 41/33/29 53/45/41 52/43/39 40/31/27
f 42/34/30 54/46/42 53/45/41 41/33/29
f 43/35/31 55/47/43 54/46/42 42/34/30
f 44/36/32 56/48/44 55/47/43 43/35/31
f 45/37/33 57/49/45 56/48/44 44/36/32
f 46/38/34 58/50/46 57/49/45 45/37/33
f 47/39/35 59/51/47 58/50/46 46/38/34
f 48/40/36 60/52/48 59/51/47 47/39/35
f 49/41/37 61/53/49 60/52/48 48/40/36
f 50/42/38 62/54/50 61/53/49 49/41/37
f 52/43/39 64/55/51 63/56/52 51/44/40
f 53/45/41 65/57/53 64/55/51 52/43/39
f 54/46/42 66/58/54 65/57/53 53/45/41
f 55/47/43 67/59/55 66/58/54 54/46/42
f 56/48/44 68/60/56 67/59/55 55/47/43
f 57/49/45 69/61/57 68/60/56 56/48/44
f 58/50/46 70/62/58 69/61/57 57/49/45
f 59/51/47 71/63/59 70/62/58 58/50/46
f 60/52/48 72/64/60 71/63/59 59/51/47
f 61/53/49 73/65/61 72/64/60 60/52/48
f 62/54/50 74/66/62 73/65/61 61/53/49
f 64/55/51 76/67/63 75/68/64 63/56/52
f 65/57/53 77/69/65 76/67/63 64/55/51
f 66/58/54 78/70/66 77/69/65 65/57/53
f 67/59/55 79/71/67 78/70/66 66/58/54
f 68/60/56 80/72/68 79/71/67 67/59/55
f 69/61/57 81/73/69 80/72/68 68/60/56
f 70/62/58 82/74/70 81/73/69 69/61/57
f 71/63/59 83/75/71 82/74/70 70/62/58
f 72/64/60 84/76/72 83/75/71 71/63/59
f 73/65/61 85/77/73 84/76/72 72/64/60
f 74/66/62 86/78/74 85/77/73 73/65/61
f 76/67/63 88/79/75 87/80/76 75/68/64
f 77/69/65 89/81/77 88/79/75 76/67/63
f 78/70/66 90/82/78 89/81/77 77/69/65
f 79/71/67 91/83/79 90/82/78 78/70/66
f 80/72/68 92/84/80 91/83/79 79/71/67
f 81/73/69 93/85/81 92/84/80 80/72/68
f 82/74/70 94/86/82 93/85/81 81/73/69
f 83/75/71 95/87/83 94/86/82 82/74/70
f 84/76/72 96/88/84 95/87/83 83/75/71
f 85/77/73 97/89/85 96/88/84 84/76/72
f 86/78/74 98/90/86 97/89/85 85/77/73
f 88/79/75 16/91/3 15/7/6 87/80/76
f 89/81/77 17/92/7 16/91/3 88/79/75
f 90/82/78 18/93/9 17/92/7 89/81/77
f 91/83/79 19/94/11 18/93/9 90/82/78
f 92/84/80 20/95/13 19/94/11 91/83/79
f 93/85/81 21/96/15 20/95/13 92/84/80
f 94/86/82 22/97/17 21/96/15 93/85/81
f 95/87/83 23/98/19 22/97/17 94/86/82
f 96/88/84 24/99/21 23/98/19 95/87/83
f 97/89/85 25/100/23 24/99/21 96/88/84
f 98/90/86 26/101/25 25/100/23 97/89/85
