# Blender 4.4.1
# www.blender.org
mtllib E.mtl
o E
v -0.077000 0.120000 -0.294000
v -0.077000 0.120000 -0.088000
v 0.202000 0.120000 -0.088000
v 0.202000 0.120000 0.000000
v -0.077000 0.120000 0.000000
v -0.077000 0.120000 0.212000
v 0.221000 0.120000 0.212000
v 0.221000 0.120000 0.300000
v -0.175000 0.120000 0.300000
v -0.175000 0.120000 -0.382000
v 0.212000 0.120000 -0.382000
v 0.212000 0.120000 -0.294000
v -0.077000 -0.120000 -0.294000
v -0.077000 -0.120000 -0.088000
v 0.202000 -0.120000 -0.088000
v 0.202000 -0.120000 0.000000
v -0.077000 -0.120000 0.000000
v -0.077000 -0.120000 0.212000
v 0.221000 -0.120000 0.212000
v 0.221000 -0.120000 0.300000
v -0.175000 -0.120000 0.300000
v -0.175000 -0.120000 -0.382000
v 0.212000 -0.120000 -0.382000
v 0.212000 -0.120000 -0.294000
v -0.077000 -0.120000 -0.294000
v -0.070820 -0.119021 -0.287820
v -0.065244 -0.116180 -0.282244
v -0.060820 -0.111756 -0.277820
v -0.057979 -0.106180 -0.274979
v -0.057000 -0.100000 -0.274000
v -0.057000 0.100000 -0.274000
v -0.057979 0.106180 -0.274979
v -0.060820 0.111756 -0.277820
v -0.065244 0.116180 -0.282244
v -0.070820 0.119021 -0.287820
v -0.077000 0.120000 -0.294000
v -0.077000 -0.120000 -0.088000
v -0.070820 -0.119021 -0.094180
v -0.065244 -0.116180 -0.099756
v -0.060820 -0.111756 -0.104180
v -0.057979 -0.106180 -0.107021
v -0.057000 -0.100000 -0.108000
v -0.057000 0.100000 -0.108000
v -0.057979 0.106180 -0.107021
v -0.060820 0.111756 -0.104180
v -0.065244 0.116180 -0.099756
v -0.070820 0.119021 -0.094180
v -0.077000 0.120000 -0.088000
v 0.202000 -0.120000 -0.088000
v 0.208180 -0.119021 -0.094180
v 0.213756 -0.116180 -0.099756
v 0.218180 -0.111756 -0.104180
v 0.221021 -0.106180 -0.107021
v 0.222000 -0.100000 -0.108000
v 0.222000 0.100000 -0.108000
v 0.221021 0.106180 -0.107021
v 0.218180 0.111756 -0.104180
v 0.213756 0.116180 -0.099756
v 0.208180 0.119021 -0.094180
v 0.202000 0.120000 -0.088000
v 0.202000 -0.120000 0.000000
v 0.208180 -0.119021 0.006180
v 0.213756 -0.116180 0.011756
v 0.218180 -0.111756 0.016180
v 0.221021 -0.106180 0.019021
v 0.222000 -0.100000 0.020000
v 0.222000 0.100000 0.020000
v 0.221021 0.106180 0.019021
v 0.218180 0.111756 0.016180
v 0.213756 0.116180 0.011756
v 0.208180 0.119021 0.006180
v 0.202000 0.120000 0.000000
v -0.077000 -0.120000 0.000000
v -0.070820 -0.119021 0.006180
v -0.065244 -0.116180 0.011756
v -0.060820 -0.111756 0.016180
v -0.057979 -0.106180 0.019021
v -0.057000 -0.100000 0.020000
v -0.057000 0.100000 0.020000
v -0.057979 0.106180 0.019021
v -0.060820 0.111756 0.016180
v -0.065244 0.116180 0.011756
v -0.070820 0.119021 0.006180
v -0.077000 0.120000 0.000000
v -0.077000 -0.120000 0.212000
v -0.070820 -0.119021 0.205820
v -0.065244 -0.116180 0.200244
v -0.060820 -0.111756 0.195820
v -0.057979 -0.106180 0.192979
v -0.057000 -0.100000 0.192000
v -0.057000 0.100000 0.192000
v -0.057979 0.106180 0.192979
v -0.060820 0.111756 0.195820
v -0.065244 0.116180 0.200244
v -0.070820 0.119021 0.205820
v -0.077000 0.120000 0.212000
v 0.221000 -0.120000 0.212000
v 0.227180 -0.119021 0.205820
v 0.232756 -0.116180 0.200244
v 0.237180 -0.111756 0.195820
v 0.240021 -0.106180 0.192979
v 0.241000 -0.100000 0.192000
v 0.241000 0.100000 0.192000
v 0.240021 0.106180 0.192979
v 0.237180 0.111756 0.195820
v 0.232756 0.116180 0.200244
v 0.227180 0.119021 0.205820
v 0.221000 0.120000 0.212000
v 0.221000 -0.120000 0.300000
v 0.227180 -0.119021 0.306180
v 0.232756 -0.116180 0.311756
v 0.237180 -0.111756 0.316180
v 0.240021 -0.106180 0.319021
v 0.241000 -0.100000 0.320000
v 0.241000 0.100000 0.320000
v 0.240021 0.106180 0.319021
v 0.237180 0.111756 0.316180
v 0.232756 0.116180 0.311756
v 0.227180 0.119021 0.306180
v 0.221000 0.120000 0.300000
v -0.175000 -0.120000 0.300000
v -0.181180 -0.119021 0.306180
v -0.186756 -0.116180 0.311756
v -0.191180 -0.111756 0.316180
v -0.194021 -0.106180 0.319021
v -0.195000 -0.100000 0.320000
v -0.195000 0.100000 0.320000
v -0.194021 0.106180 0.319021
v -0.191180 0.111756 0.316180
v -0.186756 0.116180 0.311756
v -0.181180 0.119021 0.306180
v -0.175000 0.120000 0.300000
v -0.175000 -0.120000 -0.382000
v -0.181180 -0.119021 -0.388180
v -0.186756 -0.116180 -0.393756
v -0.191180 -0.111756 -0.398180
v -0.194021 -0.106180 -0.401021
v -0.195000 -0.100000 -0.402000
v -0.195000 0.100000 -0.402000
v -0.194021 0.106180 -0.401021
v -0.191180 0.111756 -0.398180
v -0.186756 0.116180 -0.393756
v -0.181180 0.119021 -0.388180
v -0.175000 0.120000 -0.382000
v 0.212000 -0.120000 -0.382000
v 0.218180 -0.119021 -0.388180
v 0.223756 -0.116180 -0.393756
v 0.228180 -0.111756 -0.398180
v 0.231021 -0.106180 -0.401021
v 0.232000 -0.100000 -0.402000
v 0.232000 0.100000 -0.402000
v 0.231021 0.106180 -0.401021
v 0.228180 0.111756 -0.398180
v 0.223756 0.116180 -0.393756
v 0.218180 0.119021 -0.388180
v 0.212000 0.120000 -0.382000
v 0.212000 -0.120000 -0.294000
v 0.218180 -0.119021 -0.287820
v 0.223756 -0.116180 -0.282244
v 0.228180 -0.111756 -0.277820
v 0.231021 -0.106180 -0.274979
v 0.232000 -0.100000 -0.274000
v 0.232000 0.100000 -0.274000
v 0.231021 0.106180 -0.274979
v 0.228180 0.111756 -0.277820
v 0.223756 0.116180 -0.282244
v 0.218180 0.119021 -0.287820
v 0.212000 0.120000 -0.294000
vn -0.0000 1.0000 -0.0000
vn -0.0000 -1.0000 -0.0000
vn 0.1203 -0.9854 0.1203
vn 0.1203 -0.9854 -0.1203
vn 0.0787 -0.9938 -0.0787
vn 0.0787 -0.9938 0.0787
vn 0.2882 -0.9132 0.2882
vn 0.2882 -0.9132 -0.2882
vn 0.4666 -0.7513 0.4666
vn 0.4666 -0.7513 -0.4666
vn 0.6319 -0.4487 0.6319
vn 0.6319 -0.4487 -0.6319
vn 0.7024 -0.1158 0.7024
vn 0.7024 -0.1158 -0.7024
vn 0.7024 0.1158 0.7024
vn 0.7024 0.1158 -0.7024
vn 0.6319 0.4487 0.6319
vn 0.6319 0.4487 -0.6319
vn 0.4666 0.7513 0.4666
vn 0.4666 0.7513 -0.4666
vn 0.2882 0.9132 0.2882
vn 0.2882 0.9132 -0.2882
vn 0.1203 0.9854 0.1203
vn 0.1203 0.9854 -0.1203
vn 0.0787 0.9938 0.0787
vn 0.0787 0.9938 -0.0787
vn 0.1980 -0.9600 -0.1980
vn 0.3610 -0.8599 -0.3610
vn 0.5226 -0.6736 -0.5226
vn 0.6543 -0.3793 -0.6543
vn 0.7032 -0.1049 -0.7032
vn 0.7032 0.1049 -0.7032
vn 0.6543 0.3793 -0.6543
vn 0.5226 0.6736 -0.5226
vn 0.3610 0.8599 -0.3610
vn 0.1980 0.9600 -0.1980
vn 0.1980 -0.9600 0.1980
vn 0.3610 -0.8599 0.3610
vn 0.5226 -0.6736 0.5226
vn 0.6543 -0.3793 0.6543
vn 0.7032 -0.1049 0.7032
vn 0.7032 0.1049 0.7032
vn 0.6543 0.3793 0.6543
vn 0.5226 0.6736 0.5226
vn 0.3610 0.8599 0.3610
vn 0.1980 0.9600 0.1980
vn -0.1980 -0.9600 0.1980
vn -0.0787 -0.9938 0.0787
vn -0.3610 -0.8599 0.3610
vn -0.5226 -0.6736 0.5226
vn -0.6543 -0.3792 0.6543
vn -0.7032 -0.1049 0.7032
vn -0.7032 0.1049 0.7032
vn -0.6543 0.3792 0.6543
vn -0.5226 0.6736 0.5226
vn -0.3610 0.8599 0.3610
vn -0.1980 0.9600 0.1980
vn -0.0787 0.9938 0.0787
vn -0.1980 -0.9600 -0.1980
vn -0.0787 -0.9938 -0.0787
vn -0.3610 -0.8599 -0.3610
vn -0.5226 -0.6736 -0.5226
vn -0.6543 -0.3793 -0.6543
vn -0.7032 -0.1049 -0.7032
vn -0.7032 0.1049 -0.7032
vn -0.6543 0.3793 -0.6543
vn -0.5226 0.6736 -0.5226
vn -0.3610 0.8599 -0.3610
vn -0.1980 0.9600 -0.1980
vn -0.0787 0.9938 -0.0787
vt 0.727273 0.000000
vt 0.000000 0.000000
vt 0.818182 0.000000
vt 0.909091 0.000000
vt 1.000000 0.000000
vt 0.090909 0.000000
vt 0.363636 0.000000
vt 0.181818 0.000000
vt 0.272727 0.000000
vt 0.454545 0.000000
vt 0.545455 0.000000
vt 0.636364 0.000000
vt 0.000000 0.090909
vt 0.083333 0.090909
vt 0.083333 0.000000
vt 0.000000 0.181818
vt 0.083333 0.181818
vt 0.000000 0.272727
vt 0.083333 0.272727
vt 0.000000 0.363636
vt 0.083333 0.363636
vt 0.000000 0.454545
vt 0.083333 0.454545
vt 0.000000 0.545455
vt 0.083333 0.545455
vt 0.000000 0.636364
vt 0.083333 0.636364
vt 0.000000 0.727273
vt 0.083333 0.727273
vt 0.000000 0.818182
vt 0.083333 0.818182
vt 0.000000 0.909091
vt 0.083333 0.909091
vt 0.000000 1.000000
vt 0.083333 1.000000
vt 0.166667 0.090909
vt 0.166667 0.000000
vt 0.166667 0.181818
vt 0.166667 0.272727
vt 0.166667 0.363636
vt 0.166667 0.454545
vt 0.166667 0.545455
vt 0.166667 0.636364
vt 0.166667 0.727273
vt 0.166667 0.818182
vt 0.166667 0.909091
vt 0.166667 1.000000
vt 0.250000 0.090909
vt 0.250000 0.000000
vt 0.250000 0.181818
vt 0.250000 0.272727
vt 0.250000 0.363636
vt 0.250000 0.454545
vt 0.250000 0.545455
vt 0.250000 0.636364
vt 0.250000 0.727273
vt 0.250000 0.818182
vt 0.250000 0.909091
vt 0.250000 1.000000
vt 0.333333 0.090909
vt 0.333333 0.000000
vt 0.333333 0.181818
vt 0.333333 0.272727
vt 0.333333 0.363636
vt 0.333333 0.454545
vt 0.333333 0.545455
vt 0.333333 0.636364
vt 0.333333 0.727273
vt 0.333333 0.818182
vt 0.333333 0.909091
vt 0.333333 1.000000
vt 0.416667 0.090909
vt 0.416667 0.000000
vt 0.416667 0.181818
vt 0.416667 0.272727
vt 0.416667 0.363636
vt 0.416667 0.454545
vt 0.416667 0.545455
vt 0.416667 0.636364
vt 0.416667 0.727273
vt 0.416667 0.818182
vt 0.416667 0.909091
vt 0.416667 1.000000
vt 0.500000 0.090909
vt 0.500000 0.000000
vt 0.500000 0.181818
vt 0.500000 0.272727
vt 0.500000 0.363636
vt 0.500000 0.454545
vt 0.500000 0.545455
vt 0.500000 0.636364
vt 0.500000 0.727273
vt 0.500000 0.818182
vt 0.500000 0.909091
vt 0.500000 1.000000
vt 0.583333 0.090909
vt 0.583333 0.000000
vt 0.583333 0.181818
vt 0.583333 0.272727
vt 0.583333 0.363636
vt 0.583333 0.454545
vt 0.583333 0.545455
vt 0.583333 0.636364
vt 0.583333 0.727273
vt 0.583333 0.818182
vt 0.583333 0.909091
vt 0.583333 1.000000
vt 0.666667 0.090909
vt 0.666667 0.000000
vt 0.666667 0.181818
vt 0.666667 0.272727
vt 0.666667 0.363636
vt 0.666667 0.454545
vt 0.666667 0.545455
vt 0.666667 0.636364
vt 0.666667 0.727273
vt 0.666667 0.818182
vt 0.666667 0.909091
vt 0.666667 1.000000
vt 0.750000 0.090909
vt 0.750000 0.000000
vt 0.750000 0.181818
vt 0.750000 0.272727
vt 0.750000 0.363636
vt 0.750000 0.454545
vt 0.750000 0.545455
vt 0.750000 0.636364
vt 0.750000 0.727273
vt 0.750000 0.818182
vt 0.750000 0.909091
vt 0.750000 1.000000
vt 0.833333 0.090909
vt 0.833333 0.000000
vt 0.833333 0.181818
vt 0.833333 0.272727
vt 0.833333 0.363636
vt 0.833333 0.454545
vt 0.833333 0.545455
vt 0.833333 0.636364
vt 0.833333 0.727273
vt 0.833333 0.818182
vt 0.833333 0.909091
vt 0.833333 1.000000
vt 0.916667 0.090909
vt 0.916667 0.000000
vt 0.916667 0.181818
vt 0.916667 0.272727
vt 0.916667 0.363636
vt 0.916667 0.454545
vt 0.916667 0.545455
vt 0.916667 0.636364
vt 0.916667 0.727273
vt 0.916667 0.818182
vt 0.916667 0.909091
vt 0.916667 1.000000
vt 1.000000 0.090909
vt 1.000000 0.181818
vt 1.000000 0.272727
vt 1.000000 0.363636
vt 1.000000 0.454545
vt 1.000000 0.545455
vt 1.000000 0.636364
vt 1.000000 0.727273
vt 1.000000 0.818182
vt 1.000000 0.909091
vt 1.000000 1.000000
s 0
usemtl マテリアル.007
f 9/1/1 1/2/1 10/3/1
f 1/2/1 11/4/1 10/3/1
f 1/2/1 12/5/1 11/4/1
f 9/1/1 2/6/1 1/2/1
f 9/1/1 5/7/1 2/6/1
f 5/7/1 3/8/1 2/6/1
f 5/7/1 4/9/1 3/8/1
f 9/1/1 6/10/1 5/7/1
f 9/1/1 7/11/1 6/10/1
f 9/1/1 8/12/1 7/11/1
f 21/1/2 22/3/2 13/2/2
f 13/2/2 22/3/2 23/4/2
f 13/2/2 23/4/2 24/5/2
f 21/1/2 13/2/2 14/6/2
f 21/1/2 14/6/2 17/7/2
f 17/7/2 14/6/2 15/8/2
f 17/7/2 15/8/2 16/9/2
f 21/1/2 17/7/2 18/10/2
f 21/1/2 18/10/2 19/11/2
f 21/1/2 19/11/2 20/12/2
s 1
f 26/13/3 38/14/4 37/15/5 25/2/6
f 27/16/7 39/17/8 38/14/4 26/13/3
f 28/18/9 40/19/10 39/17/8 27/16/7
f 29/20/11 41/21/12 40/19/10 28/18/9
f 30/22/13 42/23/14 41/21/12 29/20/11
f 31/24/15 43/25/16 42/23/14 30/22/13
f 32/26/17 44/27/18 43/25/16 31/24/15
f 33/28/19 45/29/20 44/27/18 32/26/17
f 34/30/21 46/31/22 45/29/20 33/28/19
f 35/32/23 47/33/24 46/31/22 34/30/21
f 36/34/25 48/35/26 47/33/24 35/32/23
f 38/14/4 50/36/27 49/37/5 37/15/5
f 39/17/8 51/38/28 50/36/27 38/14/4
f 40/19/10 52/39/29 51/38/28 39/17/8
f 41/21/12 53/40/30 52/39/29 40/19/10
f 42/23/14 54/41/31 53/40/30 41/21/12
f 43/25/16 55/42/32 54/41/31 42/23/14
f 44/27/18 56/43/33 55/42/32 43/25/16
f 45/29/20 57/44/34 56/43/33 44/27/18
f 46/31/22 58/45/35 57/44/34 45/29/20
f 47/33/24 59/46/36 58/45/35 46/31/22
f 48/35/26 60/47/26 59/46/36 47/33/24
f 50/36/27 62/48/37 61/49/6 49/37/5
f 51/38/28 63/50/38 62/48/37 50/36/27
f 52/39/29 64/51/39 63/50/38 51/38/28
f 53/40/30 65/52/40 64/51/39 52/39/29
f 54/41/31 66/53/41 65/52/40 53/40/30
f 55/42/32 67/54/42 66/53/41 54/41/31
f 56/43/33 68/55/43 67/54/42 55/42/32
f 57/44/34 69/56/44 68/55/43 56/43/33
f 58/45/35 70/57/45 69/56/44 57/44/34
f 59/46/36 71/58/46 70/57/45 58/45/35
f 60/47/26 72/59/25 71/58/46 59/46/36
f 62/48/37 74/60/3 73/61/6 61/49/6
f 63/50/38 75/62/7 74/60/3 62/48/37
f 64/51/39 76/63/9 75/62/7 63/50/38
f 65/52/40 77/64/11 76/63/9 64/51/39
f 66/53/41 78/65/13 77/64/11 65/52/40
f 67/54/42 79/66/15 78/65/13 66/53/41
f 68/55/43 80/67/17 79/66/15 67/54/42
f 69/56/44 81/68/19 80/67/17 68/55/43
f 70/57/45 82/69/21 81/68/19 69/56/44
f 71/58/46 83/70/23 82/69/21 70/57/45
f 72/59/25 84/71/25 83/70/23 71/58/46
f 74/60/3 86/72/4 85/73/5 73/61/6
f 75/62/7 87/74/8 86/72/4 74/60/3
f 76/63/9 88/75/10 87/74/8 75/62/7
f 77/64/11 89/76/12 88/75/10 76/63/9
f 78/65/13 90/77/14 89/76/12 77/64/11
f 79/66/15 91/78/16 90/77/14 78/65/13
f 80/67/17 92/79/18 91/78/16 79/66/15
f 81/68/19 93/80/20 92/79/18 80/67/17
f 82/69/21 94/81/22 93/80/20 81/68/19
f 83/70/23 95/82/24 94/81/22 82/69/21
f 84/71/25 96/83/26 95/82/24 83/70/23
f 86/72/4 98/84/27 97/85/5 85/73/5
f 87/74/8 99/86/28 98/84/27 86/72/4
f 88/75/10 100/87/29 99/86/28 87/74/8
f 89/76/12 101/88/30 100/87/29 88/75/10
f 90/77/14 102/89/31 101/88/30 89/76/12
f 91/78/16 103/90/32 102/89/31 90/77/14
f 92/79/18 104/91/33 103/90/32 91/78/16
f 93/80/20 105/92/34 104/91/33 92/79/18
f 94/81/22 106/93/35 105/92/34 93/80/20
f 95/82/24 107/94/36 106/93/35 94/81/22
f 96/83/26 108/95/26 107/94/36 95/82/24
f 98/84/27 110/96/37 109/97/6 97/85/5
f 99/86/28 111/98/38 110/96/37 98/84/27
f 100/87/29 112/99/39 111/98/38 99/86/28
f 101/88/30 113/100/40 112/99/39 100/87/29
f 102/89/31 114/101/41 113/100/40 101/88/30
f 103/90/32 115/102/42 114/101/41 102/89/31
f 104/91/33 116/103/43 115/102/42 103/90/32
f 105/92/34 117/104/44 116/103/43 104/91/33
f 106/93/35 118/105/45 117/104/44 105/92/34
f 107/94/36 119/106/46 118/105/45 106/93/35
f 108/95/26 120/107/25 119/106/46 107/94/36
f 110/96/37 122/108/47 121/109/48 109/97/6
f 111/98/38 123/110/49 122/108/47 110/96/37
f 112/99/39 124/111/50 123/110/49 111/98/38
f 113/100/40 125/112/51 124/111/50 112/99/39
f 114/101/41 126/113/52 125/112/51 113/100/40
f 115/102/42 127/114/53 126/113/52 114/101/41
f 116/103/43 128/115/54 127/114/53 115/102/42
f 117/104/44 129/116/55 128/115/54 116/103/43
f 118/105/45 130/117/56 129/116/55 117/104/44
f 119/106/46 131/118/57 130/117/56 118/105/45
f 120/107/25 132/119/58 131/118/57 119/106/46
f 122/108/47 134/120/59 133/121/60 121/109/48
f 123/110/49 135/122/61 134/120/59 122/108/47
f 124/111/50 136/123/62 135/122/61 123/110/49
f 125/112/51 137/124/63 136/123/62 124/111/50
f 126/113/52 138/125/64 137/124/63 125/112/51
f 127/114/53 139/126/65 138/125/64 126/113/52
f 128/115/54 140/127/66 139/126/65 127/114/53
f 129/116/55 141/128/67 140/127/66 128/115/54
f 130/117/56 142/129/68 141/128/67 129/116/55
f 131/118/57 143/130/69 142/129/68 130/117/56
f 132/119/58 144/131/70 143/130/69 131/118/57
f 134/120/59 146/132/27 145/133/5 133/121/60
f 135/122/61 147/134/28 146/132/27 134/120/59
f 136/123/62 148/135/29 147/134/28 135/122/61
f 137/124/63 149/136/30 148/135/29 136/123/62
f 138/125/64 150/137/31 149/136/30 137/124/63
f 139/126/65 151/138/32 150/137/31 138/125/64
f 140/127/66 152/139/33 151/138/32 139/126/65
f 141/128/67 153/140/34 152/139/33 140/127/66
f 142/129/68 154/141/35 153/140/34 141/128/67
f 143/130/69 155/142/36 154/141/35 142/129/68
f 144/131/70 156/143/26 155/142/36 143/130/69
f 146/132/27 158/144/37 157/145/6 145/133/5
f 147/134/28 159/146/38 158/144/37 146/132/27
f 148/135/29 160/147/39 159/146/38 147/134/28
f 149/136/30 161/148/40 160/147/39 148/135/29
f 150/137/31 162/149/41 161/148/40 149/136/30
f 151/138/32 163/150/42 162/149/41 150/137/31
f 152/139/33 164/151/43 163/150/42 151/138/32
f 153/140/34 165/152/44 164/151/43 152/139/33
f 154/141/35 166/153/45 165/152/44 153/140/34
f 155/142/36 167/154/46 166/153/45 154/141/35
f 156/143/26 168/155/25 167/154/46 155/142/36
f 158/144/37 26/156/3 25/5/6 157/145/6
f 159/146/38 27/157/7 26/156/3 158/144/37
f 160/147/39 28/158/9 27/157/7 159/146/38
f 161/148/40 29/159/11 28/158/9 160/147/39
f 162/149/41 30/160/13 29/159/11 161/148/40
f 163/150/42 31/161/15 30/160/13 162/149/41
f 164/151/43 32/162/17 31/161/15 163/150/42
f 165/152/44 33/163/19 32/162/17 164/151/43
f 166/153/45 34/164/21 33/163/19 165/152/44
f 167/154/46 35/165/23 34/164/21 166/153/45
f 168/155/25 36/166/25 35/165/23 167/154/46
